<?xml version="1.0" encoding="UTF-8" standalone="no"?>
<!DOCTYPE svg PUBLIC "-//W3C//DTD SVG 1.1//EN" "http://www.w3.org/Graphics/SVG/1.1/DTD/svg11.dtd">
<svg width="100%" height="100%" viewBox="0 0 470 291" version="1.1" xmlns="http://www.w3.org/2000/svg" xmlns:xlink="http://www.w3.org/1999/xlink" xml:space="preserve" xmlns:serif="http://www.serif.com/" style="fill-rule:evenodd;clip-rule:evenodd;stroke-linejoin:round;stroke-miterlimit:2;">
    <g transform="matrix(0.75,0,0,0.75,-1.34293e-12,1.38556e-13)">
        <g id="s3_bg" transform="matrix(0.235351,0,0,0.181917,69.4481,17.9848)">
            <rect x="-295.083" y="-98.862" width="2659.85" height="2127.34" style="fill:rgb(253,253,253);"/>
            <path d="M2364.77,-98.862L-295.083,-98.862L-295.083,2028.48L2364.77,2028.48L2364.77,-98.862ZM2353.44,-84.204L2353.44,2013.82C2353.44,2013.82 -283.752,2013.82 -283.752,2013.82C-283.752,2013.82 -283.752,-84.204 -283.752,-84.204L2353.44,-84.204Z"/>
        </g>
        <g transform="matrix(6.87818,0,0,6.87818,-52529.5,-18773.1)">
            <path d="M7671.52,2761L7672.87,2761C7673.68,2761 7674.32,2760.34 7674.32,2759.53L7674.32,2751.49C7674.32,2750.68 7673.68,2750.04 7672.87,2750.04L7671.52,2750.04C7670.71,2750.04 7670.05,2750.68 7670.05,2751.49L7670.05,2759.53C7670.05,2760.34 7670.71,2761 7671.52,2761ZM7672.87,2760.12L7671.52,2760.12C7671.2,2760.12 7670.93,2759.85 7670.93,2759.53L7670.93,2751.49C7670.93,2751.17 7671.19,2750.92 7671.52,2750.92L7672.87,2750.92C7673.19,2750.92 7673.44,2751.17 7673.44,2751.49L7673.44,2759.53C7673.44,2759.86 7673.19,2760.12 7672.87,2760.12Z" style="fill-rule:nonzero;"/>
        </g>
        <g transform="matrix(6.87818,0,0,6.87818,-52529.5,-18773.1)">
            <path d="M7675.28,2761L7676.61,2761C7677.2,2761 7677.73,2760.65 7677.95,2760.12C7678.18,2760.65 7678.71,2761 7679.3,2761L7680.63,2761C7681.22,2761 7681.75,2760.65 7681.97,2760.13C7682.19,2760.63 7682.69,2761 7683.3,2761L7684.64,2761C7685.46,2761 7686.11,2760.34 7686.11,2759.53L7686.11,2752.84C7686.11,2752.07 7685.51,2751.45 7684.77,2751.38C7684.71,2750.63 7684.07,2750.04 7683.3,2750.04L7676.61,2750.04C7675.83,2750.04 7675.22,2750.66 7675.15,2751.38C7674.42,2751.45 7673.81,2752.07 7673.81,2752.84L7673.81,2759.53C7673.81,2760.34 7674.47,2761 7675.28,2761ZM7676.61,2760.12L7675.28,2760.12C7674.96,2760.12 7674.69,2759.85 7674.69,2759.53L7674.69,2752.84C7674.69,2752.53 7674.96,2752.26 7675.28,2752.26C7675.7,2752.26 7676.03,2751.93 7676.03,2751.51C7676.03,2751.19 7676.29,2750.92 7676.61,2750.92L7683.3,2750.92C7683.62,2750.92 7683.89,2751.19 7683.89,2751.51C7683.89,2751.93 7684.23,2752.26 7684.64,2752.26C7684.96,2752.26 7685.23,2752.53 7685.23,2752.84L7685.23,2759.53C7685.23,2759.85 7684.96,2760.12 7684.64,2760.12L7683.3,2760.12C7682.98,2760.12 7682.72,2759.85 7682.72,2759.53L7682.72,2754.18C7682.72,2753.77 7682.39,2753.43 7681.97,2753.43C7681.55,2753.43 7681.22,2753.77 7681.22,2754.18L7681.22,2759.53C7681.22,2759.85 7680.95,2760.12 7680.63,2760.12L7679.3,2760.12C7678.98,2760.12 7678.71,2759.85 7678.71,2759.53L7678.71,2754.18C7678.71,2753.77 7678.37,2753.43 7677.95,2753.43C7677.54,2753.43 7677.2,2753.77 7677.2,2754.18L7677.2,2759.53C7677.2,2759.85 7676.93,2760.12 7676.61,2760.12Z" style="fill-rule:nonzero;"/>
        </g>
        <g transform="matrix(6.87818,0,0,6.87818,-52529.5,-18773.1)">
            <path d="M7689.73,2764.98L7692.4,2764.98C7693.17,2764.98 7693.81,2764.39 7693.87,2763.64C7694.61,2763.57 7695.2,2762.95 7695.2,2762.18L7695.2,2752.82C7695.2,2752.05 7694.61,2751.43 7693.87,2751.37C7693.81,2750.61 7693.17,2750.02 7692.4,2750.02L7688.39,2750.02C7687.62,2750.02 7686.99,2750.61 7686.93,2751.37C7686.18,2751.43 7685.59,2752.05 7685.59,2752.82L7685.59,2758.17C7685.59,2758.93 7686.18,2759.57 7686.93,2759.64C7686.99,2760.39 7687.62,2760.98 7688.39,2760.98L7688.9,2760.98C7688.51,2761.24 7688.26,2761.69 7688.26,2762.18L7688.26,2763.53C7688.26,2764.33 7688.91,2764.98 7689.73,2764.98ZM7692.4,2764.1L7689.73,2764.1C7689.41,2764.1 7689.14,2763.85 7689.14,2763.53L7689.14,2762.18C7689.14,2761.86 7689.41,2761.59 7689.73,2761.59L7691.07,2761.59C7691.47,2761.59 7691.81,2761.25 7691.81,2760.84C7691.81,2760.44 7691.47,2760.1 7691.07,2760.1L7688.39,2760.1C7688.07,2760.1 7687.81,2759.83 7687.81,2759.51C7687.81,2759.09 7687.47,2758.76 7687.06,2758.76C7686.74,2758.76 7686.47,2758.5 7686.47,2758.17L7686.47,2752.82C7686.47,2752.5 7686.74,2752.23 7687.06,2752.23C7687.47,2752.23 7687.81,2751.89 7687.81,2751.48C7687.81,2751.16 7688.07,2750.9 7688.39,2750.9L7692.4,2750.9C7692.72,2750.9 7692.99,2751.16 7692.99,2751.48C7692.99,2751.89 7693.33,2752.23 7693.75,2752.23C7694.07,2752.23 7694.32,2752.5 7694.32,2752.82L7694.32,2762.18C7694.32,2762.5 7694.07,2762.77 7693.75,2762.77C7693.33,2762.77 7692.99,2763.11 7692.99,2763.53C7692.99,2763.85 7692.72,2764.1 7692.4,2764.1ZM7689.73,2757.59L7691.07,2757.59C7691.47,2757.59 7691.81,2757.24 7691.81,2756.84L7691.81,2754.17C7691.81,2753.75 7691.47,2753.41 7691.07,2753.41L7689.73,2753.41C7689.31,2753.41 7688.98,2753.75 7688.98,2754.17L7688.98,2756.84C7688.98,2757.24 7689.31,2757.59 7689.73,2757.59Z" style="fill-rule:nonzero;"/>
        </g>
    </g>
</svg>
