<?xml version="1.0" encoding="UTF-8" standalone="no"?>
<!DOCTYPE svg PUBLIC "-//W3C//DTD SVG 1.1//EN" "http://www.w3.org/Graphics/SVG/1.1/DTD/svg11.dtd">
<svg width="100%" height="100%" viewBox="0 0 454 151" version="1.1" xmlns="http://www.w3.org/2000/svg" xmlns:xlink="http://www.w3.org/1999/xlink" xml:space="preserve" xmlns:serif="http://www.serif.com/" style="fill-rule:evenodd;clip-rule:evenodd;stroke-linejoin:round;stroke-miterlimit:2;">
    <g transform="matrix(0.75,0,0,0.75,0,3.41061e-13)">
        <g transform="matrix(8.51059,0,0,8.51059,-24208.3,-4023.48)">
            <path d="M2846.49,487.528C2846.86,487.528 2847.16,487.224 2847.16,486.856L2847.16,482.84C2847.16,482.472 2847.47,482.168 2847.84,482.168L2849.18,482.168C2849.55,482.168 2849.84,482.472 2849.84,482.84L2849.84,486.856C2849.84,487.224 2850.14,487.528 2850.51,487.528L2851.85,487.528C2852.22,487.528 2852.53,487.224 2852.53,486.856L2852.53,482.84C2852.53,482.472 2852.22,482.168 2851.85,482.168C2851.49,482.168 2851.18,481.864 2851.18,481.496C2851.18,481.128 2851.49,480.84 2851.85,480.84C2852.22,480.84 2852.53,480.536 2852.53,480.168L2852.53,477.496C2852.53,477.128 2852.22,476.824 2851.85,476.824C2851.49,476.824 2851.18,476.52 2851.18,476.152C2851.18,475.784 2850.88,475.48 2850.51,475.48C2850.14,475.48 2849.84,475.784 2849.84,476.152L2849.84,478.824C2849.84,479.192 2849.55,479.496 2849.18,479.496L2847.84,479.496C2847.47,479.496 2847.16,479.192 2847.16,478.824L2847.16,476.152C2847.16,475.784 2846.86,475.48 2846.49,475.48L2845.16,475.48C2844.8,475.48 2844.49,475.784 2844.49,476.152L2844.49,485.512C2844.49,485.88 2844.8,486.184 2845.16,486.184C2845.53,486.184 2845.84,486.488 2845.84,486.856C2845.84,487.224 2846.12,487.528 2846.49,487.528Z" style="fill:rgb(74,183,226);fill-rule:nonzero;"/>
        </g>
        <g transform="matrix(8.50798,0,0,8.51059,-24122.5,-4034.85)">
            <path d="M2846.49,487.528L2850.51,487.528C2850.88,487.528 2851.16,487.224 2851.16,486.856C2851.16,486.488 2851.47,486.184 2851.84,486.184C2852.2,486.184 2852.51,485.88 2852.51,485.512L2852.51,480.168C2852.51,479.8 2852.17,479.512 2851.8,479.512C2851.44,479.512 2851.16,479.192 2851.16,478.824C2851.16,478.456 2850.88,478.152 2850.51,478.152L2846.49,478.152C2846.12,478.152 2845.82,478.456 2845.82,478.824C2845.82,479.192 2845.52,479.496 2845.15,479.496C2844.78,479.496 2844.49,479.8 2844.49,480.168L2844.49,485.512C2844.49,485.88 2844.78,486.184 2845.15,486.184C2845.52,486.184 2845.82,486.488 2845.82,486.856C2845.82,487.224 2846.12,487.528 2846.49,487.528ZM2849.16,484.84L2847.84,484.84C2847.47,484.84 2847.16,484.552 2847.16,484.184L2847.16,481.496C2847.16,481.128 2847.47,480.84 2847.84,480.84L2849.16,480.84C2849.53,480.84 2849.84,481.128 2849.84,481.496L2849.84,484.184C2849.84,484.552 2849.53,484.84 2849.16,484.84Z" style="fill:rgb(126,211,33);fill-rule:nonzero;"/>
        </g>
        <g transform="matrix(8.51059,0,0,8.51059,-24051.6,-3995.36)">
            <path d="M2846.48,487.56L2850.49,487.56C2850.86,487.56 2851.15,487.256 2851.15,486.888C2851.15,486.52 2851.45,486.216 2851.82,486.216C2852.19,486.216 2852.49,485.912 2852.49,485.544C2852.49,485.176 2852.19,484.888 2851.82,484.888L2847.8,484.888C2847.45,484.888 2847.15,484.584 2847.15,484.216L2847.15,481.56C2847.15,481.176 2847.5,480.872 2847.85,480.872L2849.15,480.872C2849.52,480.872 2849.82,481.176 2849.82,481.544C2849.82,481.912 2850.12,482.2 2850.49,482.2L2851.82,482.2C2852.19,482.2 2852.49,481.912 2852.49,481.544L2852.49,480.2C2852.49,479.832 2852.19,479.528 2851.82,479.528C2851.45,479.528 2851.15,479.224 2851.15,478.856C2851.15,478.488 2850.86,478.2 2850.49,478.2L2846.48,478.2C2846.11,478.2 2845.8,478.488 2845.8,478.856C2845.8,479.224 2845.5,479.528 2845.13,479.528C2844.76,479.528 2844.48,479.832 2844.48,480.2L2844.48,485.544C2844.48,485.912 2844.76,486.216 2845.13,486.216C2845.5,486.216 2845.8,486.52 2845.8,486.888C2845.8,487.256 2846.11,487.56 2846.48,487.56Z" style="fill:rgb(248,197,28);fill-rule:nonzero;"/>
        </g>
        <g transform="matrix(1.09077,0,0,1.09077,-3102.52,-518.655)">
            <path d="M2846.48,487.528L2850.49,487.528C2850.86,487.528 2851.16,487.224 2851.16,486.856C2851.16,486.488 2851.47,486.184 2851.84,486.184C2852.2,486.184 2852.49,485.88 2852.49,485.512L2852.49,477.496C2852.49,477.128 2852.2,476.824 2851.84,476.824C2851.47,476.824 2851.16,476.52 2851.16,476.152C2851.16,475.784 2850.86,475.496 2850.49,475.496L2846.48,475.496C2846.11,475.496 2845.82,475.784 2845.82,476.152C2845.82,476.52 2845.52,476.824 2845.15,476.824C2844.78,476.824 2844.48,477.128 2844.48,477.496L2844.48,485.512C2844.48,485.88 2844.78,486.184 2845.15,486.184C2845.52,486.184 2845.82,486.488 2845.82,486.856C2845.82,487.224 2846.11,487.528 2846.48,487.528ZM2849.16,484.856L2847.82,484.856C2847.45,484.856 2847.15,484.552 2847.15,484.184L2847.15,478.824C2847.15,478.456 2847.45,478.168 2847.82,478.168L2849.16,478.168C2849.53,478.168 2849.82,478.456 2849.82,478.824L2849.82,484.184C2849.82,484.552 2849.53,484.856 2849.16,484.856Z" style="fill:rgb(142,142,147);fill-opacity:0.2;fill-rule:nonzero;"/>
        </g>
        <g transform="matrix(1.09077,0,0,1.09077,-3102.52,-518.655)">
            <path d="M2856.8,487.544L2858.12,487.544C2858.49,487.544 2858.8,487.256 2858.8,486.888L2858.8,476.184C2858.8,475.816 2858.49,475.512 2858.12,475.512L2856.8,475.512C2856.43,475.512 2856.12,475.816 2856.12,476.184C2856.12,476.552 2855.82,476.856 2855.45,476.856C2855.09,476.856 2854.78,477.16 2854.78,477.528L2854.78,478.856C2854.78,479.224 2855.09,479.528 2855.45,479.528C2855.82,479.528 2856.12,479.832 2856.12,480.2L2856.12,486.888C2856.12,487.256 2856.43,487.544 2856.8,487.544Z" style="fill:rgb(142,142,147);fill-opacity:0.2;fill-rule:nonzero;"/>
        </g>
        <g transform="matrix(1.09077,0,0,1.09077,-3102.52,-518.655)">
            <path d="M2863.71,487.544L2865.04,487.544C2865.41,487.544 2865.71,487.256 2865.71,486.888L2865.71,476.184C2865.71,475.816 2865.41,475.512 2865.04,475.512L2863.71,475.512C2863.34,475.512 2863.04,475.816 2863.04,476.184C2863.04,476.552 2862.73,476.856 2862.37,476.856C2862,476.856 2861.69,477.16 2861.69,477.528L2861.69,478.856C2861.69,479.224 2862,479.528 2862.37,479.528C2862.73,479.528 2863.04,479.832 2863.04,480.2L2863.04,486.888C2863.04,487.256 2863.34,487.544 2863.71,487.544Z" style="fill:rgb(142,142,147);fill-opacity:0.2;fill-rule:nonzero;"/>
        </g>
        <g transform="matrix(1.09077,0,0,1.09077,-3102.52,-518.655)">
            <path d="M2870.59,487.528L2874.61,487.528C2874.97,487.528 2875.28,487.224 2875.28,486.856C2875.28,486.488 2875.58,486.184 2875.95,486.184C2876.32,486.184 2876.61,485.88 2876.61,485.512L2876.61,477.496C2876.61,477.128 2876.32,476.824 2875.95,476.824C2875.58,476.824 2875.28,476.52 2875.28,476.152C2875.28,475.784 2874.97,475.496 2874.61,475.496L2870.59,475.496C2870.22,475.496 2869.93,475.784 2869.93,476.152C2869.93,476.52 2869.63,476.824 2869.26,476.824C2868.89,476.824 2868.59,477.128 2868.59,477.496L2868.59,485.512C2868.59,485.88 2868.89,486.184 2869.26,486.184C2869.63,486.184 2869.93,486.488 2869.93,486.856C2869.93,487.224 2870.22,487.528 2870.59,487.528ZM2873.28,484.856L2871.93,484.856C2871.57,484.856 2871.26,484.552 2871.26,484.184L2871.26,478.824C2871.26,478.456 2871.57,478.168 2871.93,478.168L2873.28,478.168C2873.64,478.168 2873.93,478.456 2873.93,478.824L2873.93,484.184C2873.93,484.552 2873.64,484.856 2873.28,484.856Z" style="fill:rgb(142,142,147);fill-opacity:0.2;fill-rule:nonzero;"/>
        </g>
        <g transform="matrix(1.09077,0,0,1.09077,-3102.52,-518.655)">
            <path d="M2880.91,487.544L2882.24,487.544C2882.61,487.544 2882.91,487.256 2882.91,486.888L2882.91,476.184C2882.91,475.816 2882.61,475.512 2882.24,475.512L2880.91,475.512C2880.54,475.512 2880.24,475.816 2880.24,476.184C2880.24,476.552 2879.93,476.856 2879.57,476.856C2879.2,476.856 2878.89,477.16 2878.89,477.528L2878.89,478.856C2878.89,479.224 2879.2,479.528 2879.57,479.528C2879.93,479.528 2880.24,479.832 2880.24,480.2L2880.24,486.888C2880.24,487.256 2880.54,487.544 2880.91,487.544Z" style="fill:rgb(142,142,147);fill-opacity:0.2;fill-rule:nonzero;"/>
        </g>
        <g transform="matrix(1.09077,0,0,1.09077,-3102.52,-518.655)">
            <path d="M2887.79,487.528L2891.8,487.528C2892.17,487.528 2892.48,487.224 2892.48,486.856C2892.48,486.488 2892.78,486.184 2893.15,486.184C2893.52,486.184 2893.8,485.88 2893.8,485.512L2893.8,477.496C2893.8,477.128 2893.52,476.824 2893.15,476.824C2892.78,476.824 2892.48,476.52 2892.48,476.152C2892.48,475.784 2892.17,475.496 2891.8,475.496L2887.79,475.496C2887.42,475.496 2887.13,475.784 2887.13,476.152C2887.13,476.52 2886.83,476.824 2886.46,476.824C2886.09,476.824 2885.79,477.128 2885.79,477.496L2885.79,485.512C2885.79,485.88 2886.09,486.184 2886.46,486.184C2886.83,486.184 2887.13,486.488 2887.13,486.856C2887.13,487.224 2887.42,487.528 2887.79,487.528ZM2890.48,484.856L2889.13,484.856C2888.76,484.856 2888.46,484.552 2888.46,484.184L2888.46,478.824C2888.46,478.456 2888.76,478.168 2889.13,478.168L2890.48,478.168C2890.85,478.168 2891.13,478.456 2891.13,478.824L2891.13,484.184C2891.13,484.552 2890.85,484.856 2890.48,484.856Z" style="fill:rgb(142,142,147);fill-opacity:0.2;fill-rule:nonzero;"/>
        </g>
        <g transform="matrix(1.09077,0,0,1.09077,-3102.52,-518.655)">
            <path d="M2898.11,487.544L2899.44,487.544C2899.8,487.544 2900.11,487.256 2900.11,486.888L2900.11,476.184C2900.11,475.816 2899.8,475.512 2899.44,475.512L2898.11,475.512C2897.74,475.512 2897.44,475.816 2897.44,476.184C2897.44,476.552 2897.13,476.856 2896.76,476.856C2896.4,476.856 2896.09,477.16 2896.09,477.528L2896.09,478.856C2896.09,479.224 2896.4,479.528 2896.76,479.528C2897.13,479.528 2897.44,479.832 2897.44,480.2L2897.44,486.888C2897.44,487.256 2897.74,487.544 2898.11,487.544Z" style="fill:rgb(142,142,147);fill-opacity:0.2;fill-rule:nonzero;"/>
        </g>
        <g transform="matrix(1.09077,0,0,1.09077,-3102.52,-518.655)">
            <path d="M2905.02,487.544L2906.35,487.544C2906.72,487.544 2907.02,487.256 2907.02,486.888L2907.02,476.184C2907.02,475.816 2906.72,475.512 2906.35,475.512L2905.02,475.512C2904.65,475.512 2904.35,475.816 2904.35,476.184C2904.35,476.552 2904.05,476.856 2903.68,476.856C2903.31,476.856 2903.01,477.16 2903.01,477.528L2903.01,478.856C2903.01,479.224 2903.31,479.528 2903.68,479.528C2904.05,479.528 2904.35,479.832 2904.35,480.2L2904.35,486.888C2904.35,487.256 2904.65,487.544 2905.02,487.544Z" style="fill:rgb(142,142,147);fill-opacity:0.2;fill-rule:nonzero;"/>
        </g>
        <g transform="matrix(1.09077,0,0,1.09077,-2948.45,-467.388)">
            <path d="M2846.48,487.528L2850.49,487.528C2850.86,487.528 2851.16,487.224 2851.16,486.856C2851.16,486.488 2851.47,486.184 2851.84,486.184C2852.2,486.184 2852.49,485.88 2852.49,485.512L2852.49,477.496C2852.49,477.128 2852.2,476.824 2851.84,476.824C2851.47,476.824 2851.16,476.52 2851.16,476.152C2851.16,475.784 2850.86,475.496 2850.49,475.496L2846.48,475.496C2846.11,475.496 2845.82,475.784 2845.82,476.152C2845.82,476.52 2845.52,476.824 2845.15,476.824C2844.78,476.824 2844.48,477.128 2844.48,477.496L2844.48,485.512C2844.48,485.88 2844.78,486.184 2845.15,486.184C2845.52,486.184 2845.82,486.488 2845.82,486.856C2845.82,487.224 2846.11,487.528 2846.48,487.528ZM2849.16,484.856L2847.82,484.856C2847.45,484.856 2847.15,484.552 2847.15,484.184L2847.15,478.824C2847.15,478.456 2847.45,478.168 2847.82,478.168L2849.16,478.168C2849.53,478.168 2849.82,478.456 2849.82,478.824L2849.82,484.184C2849.82,484.552 2849.53,484.856 2849.16,484.856Z" style="fill:rgb(142,142,147);fill-opacity:0.2;fill-rule:nonzero;"/>
        </g>
        <g transform="matrix(1.09077,0,0,1.09077,-2948.45,-467.388)">
            <path d="M2856.8,487.544L2858.12,487.544C2858.49,487.544 2858.8,487.256 2858.8,486.888L2858.8,476.184C2858.8,475.816 2858.49,475.512 2858.12,475.512L2856.8,475.512C2856.43,475.512 2856.12,475.816 2856.12,476.184C2856.12,476.552 2855.82,476.856 2855.45,476.856C2855.09,476.856 2854.78,477.16 2854.78,477.528L2854.78,478.856C2854.78,479.224 2855.09,479.528 2855.45,479.528C2855.82,479.528 2856.12,479.832 2856.12,480.2L2856.12,486.888C2856.12,487.256 2856.43,487.544 2856.8,487.544Z" style="fill:rgb(142,142,147);fill-opacity:0.2;fill-rule:nonzero;"/>
        </g>
        <g transform="matrix(1.09077,0,0,1.09077,-2948.45,-467.388)">
            <path d="M2863.71,487.544L2865.04,487.544C2865.41,487.544 2865.71,487.256 2865.71,486.888L2865.71,476.184C2865.71,475.816 2865.41,475.512 2865.04,475.512L2863.71,475.512C2863.34,475.512 2863.04,475.816 2863.04,476.184C2863.04,476.552 2862.73,476.856 2862.37,476.856C2862,476.856 2861.69,477.16 2861.69,477.528L2861.69,478.856C2861.69,479.224 2862,479.528 2862.37,479.528C2862.73,479.528 2863.04,479.832 2863.04,480.2L2863.04,486.888C2863.04,487.256 2863.34,487.544 2863.71,487.544Z" style="fill:rgb(142,142,147);fill-opacity:0.2;fill-rule:nonzero;"/>
        </g>
        <g transform="matrix(1.09077,0,0,1.09077,-2948.45,-467.388)">
            <path d="M2870.59,487.528L2874.61,487.528C2874.97,487.528 2875.28,487.224 2875.28,486.856C2875.28,486.488 2875.58,486.184 2875.95,486.184C2876.32,486.184 2876.61,485.88 2876.61,485.512L2876.61,477.496C2876.61,477.128 2876.32,476.824 2875.95,476.824C2875.58,476.824 2875.28,476.52 2875.28,476.152C2875.28,475.784 2874.97,475.496 2874.61,475.496L2870.59,475.496C2870.22,475.496 2869.93,475.784 2869.93,476.152C2869.93,476.52 2869.63,476.824 2869.26,476.824C2868.89,476.824 2868.59,477.128 2868.59,477.496L2868.59,485.512C2868.59,485.88 2868.89,486.184 2869.26,486.184C2869.63,486.184 2869.93,486.488 2869.93,486.856C2869.93,487.224 2870.22,487.528 2870.59,487.528ZM2873.28,484.856L2871.93,484.856C2871.57,484.856 2871.26,484.552 2871.26,484.184L2871.26,478.824C2871.26,478.456 2871.57,478.168 2871.93,478.168L2873.28,478.168C2873.64,478.168 2873.93,478.456 2873.93,478.824L2873.93,484.184C2873.93,484.552 2873.64,484.856 2873.28,484.856Z" style="fill:rgb(142,142,147);fill-opacity:0.2;fill-rule:nonzero;"/>
        </g>
        <g transform="matrix(1.09077,0,0,1.09077,-2948.45,-467.388)">
            <path d="M2881.36,487.528L2885.37,487.528C2885.74,487.528 2886.05,487.224 2886.05,486.856C2886.05,486.488 2886.35,486.184 2886.72,486.184C2887.09,486.184 2887.37,485.88 2887.37,485.512L2887.37,477.496C2887.37,477.128 2887.09,476.824 2886.72,476.824C2886.35,476.824 2886.05,476.52 2886.05,476.152C2886.05,475.784 2885.74,475.496 2885.37,475.496L2881.36,475.496C2880.99,475.496 2880.7,475.784 2880.7,476.152C2880.7,476.52 2880.4,476.824 2880.03,476.824C2879.66,476.824 2879.36,477.128 2879.36,477.496L2879.36,485.512C2879.36,485.88 2879.66,486.184 2880.03,486.184C2880.4,486.184 2880.7,486.488 2880.7,486.856C2880.7,487.224 2880.99,487.528 2881.36,487.528ZM2884.05,484.856L2882.7,484.856C2882.33,484.856 2882.03,484.552 2882.03,484.184L2882.03,478.824C2882.03,478.456 2882.33,478.168 2882.7,478.168L2884.05,478.168C2884.41,478.168 2884.7,478.456 2884.7,478.824L2884.7,484.184C2884.7,484.552 2884.41,484.856 2884.05,484.856Z" style="fill:rgb(142,142,147);fill-opacity:0.2;fill-rule:nonzero;"/>
        </g>
        <g transform="matrix(1.09077,0,0,1.09077,-2948.45,-467.388)">
            <path d="M2892.12,487.528L2896.14,487.528C2896.51,487.528 2896.81,487.224 2896.81,486.856C2896.81,486.488 2897.12,486.184 2897.49,486.184C2897.85,486.184 2898.14,485.88 2898.14,485.512L2898.14,477.496C2898.14,477.128 2897.85,476.824 2897.49,476.824C2897.12,476.824 2896.81,476.52 2896.81,476.152C2896.81,475.784 2896.51,475.496 2896.14,475.496L2892.12,475.496C2891.76,475.496 2891.47,475.784 2891.47,476.152C2891.47,476.52 2891.16,476.824 2890.8,476.824C2890.43,476.824 2890.12,477.128 2890.12,477.496L2890.12,485.512C2890.12,485.88 2890.43,486.184 2890.8,486.184C2891.16,486.184 2891.47,486.488 2891.47,486.856C2891.47,487.224 2891.76,487.528 2892.12,487.528ZM2894.81,484.856L2893.47,484.856C2893.1,484.856 2892.8,484.552 2892.8,484.184L2892.8,478.824C2892.8,478.456 2893.1,478.168 2893.47,478.168L2894.81,478.168C2895.18,478.168 2895.47,478.456 2895.47,478.824L2895.47,484.184C2895.47,484.552 2895.18,484.856 2894.81,484.856Z" style="fill:rgb(142,142,147);fill-opacity:0.2;fill-rule:nonzero;"/>
        </g>
        <g transform="matrix(1.09077,0,0,1.09077,-2948.45,-467.388)">
            <path d="M2902.45,487.544L2903.77,487.544C2904.14,487.544 2904.45,487.256 2904.45,486.888L2904.45,476.184C2904.45,475.816 2904.14,475.512 2903.77,475.512L2902.45,475.512C2902.08,475.512 2901.77,475.816 2901.77,476.184C2901.77,476.552 2901.47,476.856 2901.1,476.856C2900.73,476.856 2900.43,477.16 2900.43,477.528L2900.43,478.856C2900.43,479.224 2900.73,479.528 2901.1,479.528C2901.47,479.528 2901.77,479.832 2901.77,480.2L2901.77,486.888C2901.77,487.256 2902.08,487.544 2902.45,487.544Z" style="fill:rgb(142,142,147);fill-opacity:0.2;fill-rule:nonzero;"/>
        </g>
        <g transform="matrix(1.09077,0,0,1.09077,-2948.45,-467.388)">
            <path d="M2909.36,487.544L2910.68,487.544C2911.05,487.544 2911.36,487.256 2911.36,486.888L2911.36,476.184C2911.36,475.816 2911.05,475.512 2910.68,475.512L2909.36,475.512C2908.99,475.512 2908.68,475.816 2908.68,476.184C2908.68,476.552 2908.38,476.856 2908.01,476.856C2907.64,476.856 2907.34,477.16 2907.34,477.528L2907.34,478.856C2907.34,479.224 2907.64,479.528 2908.01,479.528C2908.38,479.528 2908.68,479.832 2908.68,480.2L2908.68,486.888C2908.68,487.256 2908.99,487.544 2909.36,487.544Z" style="fill:rgb(142,142,147);fill-opacity:0.2;fill-rule:nonzero;"/>
        </g>
        <g transform="matrix(1.09077,0,0,1.09077,-2794.11,-507.132)">
            <path d="M2846.48,487.528L2850.49,487.528C2850.86,487.528 2851.16,487.224 2851.16,486.856C2851.16,486.488 2851.47,486.184 2851.84,486.184C2852.2,486.184 2852.49,485.88 2852.49,485.512L2852.49,477.496C2852.49,477.128 2852.2,476.824 2851.84,476.824C2851.47,476.824 2851.16,476.52 2851.16,476.152C2851.16,475.784 2850.86,475.496 2850.49,475.496L2846.48,475.496C2846.11,475.496 2845.82,475.784 2845.82,476.152C2845.82,476.52 2845.52,476.824 2845.15,476.824C2844.78,476.824 2844.48,477.128 2844.48,477.496L2844.48,485.512C2844.48,485.88 2844.78,486.184 2845.15,486.184C2845.52,486.184 2845.82,486.488 2845.82,486.856C2845.82,487.224 2846.11,487.528 2846.48,487.528ZM2849.16,484.856L2847.82,484.856C2847.45,484.856 2847.15,484.552 2847.15,484.184L2847.15,478.824C2847.15,478.456 2847.45,478.168 2847.82,478.168L2849.16,478.168C2849.53,478.168 2849.82,478.456 2849.82,478.824L2849.82,484.184C2849.82,484.552 2849.53,484.856 2849.16,484.856Z" style="fill:rgb(142,142,147);fill-opacity:0.2;fill-rule:nonzero;"/>
        </g>
        <g transform="matrix(1.09077,0,0,1.09077,-2794.11,-507.132)">
            <path d="M2856.8,487.544L2858.12,487.544C2858.49,487.544 2858.8,487.256 2858.8,486.888L2858.8,476.184C2858.8,475.816 2858.49,475.512 2858.12,475.512L2856.8,475.512C2856.43,475.512 2856.12,475.816 2856.12,476.184C2856.12,476.552 2855.82,476.856 2855.45,476.856C2855.09,476.856 2854.78,477.16 2854.78,477.528L2854.78,478.856C2854.78,479.224 2855.09,479.528 2855.45,479.528C2855.82,479.528 2856.12,479.832 2856.12,480.2L2856.12,486.888C2856.12,487.256 2856.43,487.544 2856.8,487.544Z" style="fill:rgb(142,142,147);fill-opacity:0.2;fill-rule:nonzero;"/>
        </g>
        <g transform="matrix(1.09077,0,0,1.09077,-2794.11,-507.132)">
            <path d="M2863.71,487.544L2865.04,487.544C2865.41,487.544 2865.71,487.256 2865.71,486.888L2865.71,476.184C2865.71,475.816 2865.41,475.512 2865.04,475.512L2863.71,475.512C2863.34,475.512 2863.04,475.816 2863.04,476.184C2863.04,476.552 2862.73,476.856 2862.37,476.856C2862,476.856 2861.69,477.16 2861.69,477.528L2861.69,478.856C2861.69,479.224 2862,479.528 2862.37,479.528C2862.73,479.528 2863.04,479.832 2863.04,480.2L2863.04,486.888C2863.04,487.256 2863.34,487.544 2863.71,487.544Z" style="fill:rgb(142,142,147);fill-opacity:0.2;fill-rule:nonzero;"/>
        </g>
        <g transform="matrix(1.09077,0,0,1.09077,-2794.11,-507.132)">
            <path d="M2870.59,487.528L2874.61,487.528C2874.97,487.528 2875.28,487.224 2875.28,486.856C2875.28,486.488 2875.58,486.184 2875.95,486.184C2876.32,486.184 2876.61,485.88 2876.61,485.512L2876.61,477.496C2876.61,477.128 2876.32,476.824 2875.95,476.824C2875.58,476.824 2875.28,476.52 2875.28,476.152C2875.28,475.784 2874.97,475.496 2874.61,475.496L2870.59,475.496C2870.22,475.496 2869.93,475.784 2869.93,476.152C2869.93,476.52 2869.63,476.824 2869.26,476.824C2868.89,476.824 2868.59,477.128 2868.59,477.496L2868.59,485.512C2868.59,485.88 2868.89,486.184 2869.26,486.184C2869.63,486.184 2869.93,486.488 2869.93,486.856C2869.93,487.224 2870.22,487.528 2870.59,487.528ZM2873.28,484.856L2871.93,484.856C2871.57,484.856 2871.26,484.552 2871.26,484.184L2871.26,478.824C2871.26,478.456 2871.57,478.168 2871.93,478.168L2873.28,478.168C2873.64,478.168 2873.93,478.456 2873.93,478.824L2873.93,484.184C2873.93,484.552 2873.64,484.856 2873.28,484.856Z" style="fill:rgb(142,142,147);fill-opacity:0.2;fill-rule:nonzero;"/>
        </g>
        <g transform="matrix(1.09077,0,0,1.09077,-2794.11,-507.132)">
            <path d="M2881.36,487.528L2885.37,487.528C2885.74,487.528 2886.05,487.224 2886.05,486.856C2886.05,486.488 2886.35,486.184 2886.72,486.184C2887.09,486.184 2887.37,485.88 2887.37,485.512L2887.37,477.496C2887.37,477.128 2887.09,476.824 2886.72,476.824C2886.35,476.824 2886.05,476.52 2886.05,476.152C2886.05,475.784 2885.74,475.496 2885.37,475.496L2881.36,475.496C2880.99,475.496 2880.7,475.784 2880.7,476.152C2880.7,476.52 2880.4,476.824 2880.03,476.824C2879.66,476.824 2879.36,477.128 2879.36,477.496L2879.36,485.512C2879.36,485.88 2879.66,486.184 2880.03,486.184C2880.4,486.184 2880.7,486.488 2880.7,486.856C2880.7,487.224 2880.99,487.528 2881.36,487.528ZM2884.05,484.856L2882.7,484.856C2882.33,484.856 2882.03,484.552 2882.03,484.184L2882.03,478.824C2882.03,478.456 2882.33,478.168 2882.7,478.168L2884.05,478.168C2884.41,478.168 2884.7,478.456 2884.7,478.824L2884.7,484.184C2884.7,484.552 2884.41,484.856 2884.05,484.856Z" style="fill:rgb(142,142,147);fill-opacity:0.2;fill-rule:nonzero;"/>
        </g>
        <g transform="matrix(1.09077,0,0,1.09077,-2794.11,-507.132)">
            <path d="M2892.12,487.528L2896.14,487.528C2896.51,487.528 2896.81,487.224 2896.81,486.856C2896.81,486.488 2897.12,486.184 2897.49,486.184C2897.85,486.184 2898.14,485.88 2898.14,485.512L2898.14,477.496C2898.14,477.128 2897.85,476.824 2897.49,476.824C2897.12,476.824 2896.81,476.52 2896.81,476.152C2896.81,475.784 2896.51,475.496 2896.14,475.496L2892.12,475.496C2891.76,475.496 2891.47,475.784 2891.47,476.152C2891.47,476.52 2891.16,476.824 2890.8,476.824C2890.43,476.824 2890.12,477.128 2890.12,477.496L2890.12,485.512C2890.12,485.88 2890.43,486.184 2890.8,486.184C2891.16,486.184 2891.47,486.488 2891.47,486.856C2891.47,487.224 2891.76,487.528 2892.12,487.528ZM2894.81,484.856L2893.47,484.856C2893.1,484.856 2892.8,484.552 2892.8,484.184L2892.8,478.824C2892.8,478.456 2893.1,478.168 2893.47,478.168L2894.81,478.168C2895.18,478.168 2895.47,478.456 2895.47,478.824L2895.47,484.184C2895.47,484.552 2895.18,484.856 2894.81,484.856Z" style="fill:rgb(142,142,147);fill-opacity:0.2;fill-rule:nonzero;"/>
        </g>
        <g transform="matrix(1.09077,0,0,1.09077,-2794.11,-507.132)">
            <path d="M2902.89,487.528L2906.91,487.528C2907.28,487.528 2907.58,487.224 2907.58,486.856C2907.58,486.488 2907.89,486.184 2908.25,486.184C2908.62,486.184 2908.91,485.88 2908.91,485.512L2908.91,477.496C2908.91,477.128 2908.62,476.824 2908.25,476.824C2907.89,476.824 2907.58,476.52 2907.58,476.152C2907.58,475.784 2907.28,475.496 2906.91,475.496L2902.89,475.496C2902.53,475.496 2902.24,475.784 2902.24,476.152C2902.24,476.52 2901.93,476.824 2901.57,476.824C2901.2,476.824 2900.89,477.128 2900.89,477.496L2900.89,485.512C2900.89,485.88 2901.2,486.184 2901.57,486.184C2901.93,486.184 2902.24,486.488 2902.24,486.856C2902.24,487.224 2902.53,487.528 2902.89,487.528ZM2905.58,484.856L2904.24,484.856C2903.87,484.856 2903.57,484.552 2903.57,484.184L2903.57,478.824C2903.57,478.456 2903.87,478.168 2904.24,478.168L2905.58,478.168C2905.95,478.168 2906.24,478.456 2906.24,478.824L2906.24,484.184C2906.24,484.552 2905.95,484.856 2905.58,484.856Z" style="fill:rgb(142,142,147);fill-opacity:0.2;fill-rule:nonzero;"/>
        </g>
        <g transform="matrix(1.09077,0,0,1.09077,-2794.11,-507.132)">
            <path d="M2913.21,487.544L2914.54,487.544C2914.91,487.544 2915.21,487.256 2915.21,486.888L2915.21,476.184C2915.21,475.816 2914.91,475.512 2914.54,475.512L2913.21,475.512C2912.85,475.512 2912.54,475.816 2912.54,476.184C2912.54,476.552 2912.24,476.856 2911.87,476.856C2911.5,476.856 2911.2,477.16 2911.2,477.528L2911.2,478.856C2911.2,479.224 2911.5,479.528 2911.87,479.528C2912.24,479.528 2912.54,479.832 2912.54,480.2L2912.54,486.888C2912.54,487.256 2912.85,487.544 2913.21,487.544Z" style="fill:rgb(142,142,147);fill-opacity:0.2;fill-rule:nonzero;"/>
        </g>
        <g transform="matrix(1.09077,0,0,1.09077,-2643.82,-487.388)">
            <path d="M2846.48,487.528L2850.49,487.528C2850.86,487.528 2851.16,487.224 2851.16,486.856C2851.16,486.488 2851.47,486.184 2851.84,486.184C2852.2,486.184 2852.49,485.88 2852.49,485.512L2852.49,477.496C2852.49,477.128 2852.2,476.824 2851.84,476.824C2851.47,476.824 2851.16,476.52 2851.16,476.152C2851.16,475.784 2850.86,475.496 2850.49,475.496L2846.48,475.496C2846.11,475.496 2845.82,475.784 2845.82,476.152C2845.82,476.52 2845.52,476.824 2845.15,476.824C2844.78,476.824 2844.48,477.128 2844.48,477.496L2844.48,485.512C2844.48,485.88 2844.78,486.184 2845.15,486.184C2845.52,486.184 2845.82,486.488 2845.82,486.856C2845.82,487.224 2846.11,487.528 2846.48,487.528ZM2849.16,484.856L2847.82,484.856C2847.45,484.856 2847.15,484.552 2847.15,484.184L2847.15,478.824C2847.15,478.456 2847.45,478.168 2847.82,478.168L2849.16,478.168C2849.53,478.168 2849.82,478.456 2849.82,478.824L2849.82,484.184C2849.82,484.552 2849.53,484.856 2849.16,484.856Z" style="fill:rgb(142,142,147);fill-opacity:0.3;fill-rule:nonzero;"/>
        </g>
        <g transform="matrix(1.09077,0,0,1.09077,-2643.82,-487.388)">
            <path d="M2856.8,487.544L2858.12,487.544C2858.49,487.544 2858.8,487.256 2858.8,486.888L2858.8,476.184C2858.8,475.816 2858.49,475.512 2858.12,475.512L2856.8,475.512C2856.43,475.512 2856.12,475.816 2856.12,476.184C2856.12,476.552 2855.82,476.856 2855.45,476.856C2855.09,476.856 2854.78,477.16 2854.78,477.528L2854.78,478.856C2854.78,479.224 2855.09,479.528 2855.45,479.528C2855.82,479.528 2856.12,479.832 2856.12,480.2L2856.12,486.888C2856.12,487.256 2856.43,487.544 2856.8,487.544Z" style="fill:rgb(142,142,147);fill-opacity:0.3;fill-rule:nonzero;"/>
        </g>
        <g transform="matrix(1.09077,0,0,1.09077,-2643.82,-487.388)">
            <path d="M2863.71,487.544L2865.04,487.544C2865.41,487.544 2865.71,487.256 2865.71,486.888L2865.71,476.184C2865.71,475.816 2865.41,475.512 2865.04,475.512L2863.71,475.512C2863.34,475.512 2863.04,475.816 2863.04,476.184C2863.04,476.552 2862.73,476.856 2862.37,476.856C2862,476.856 2861.69,477.16 2861.69,477.528L2861.69,478.856C2861.69,479.224 2862,479.528 2862.37,479.528C2862.73,479.528 2863.04,479.832 2863.04,480.2L2863.04,486.888C2863.04,487.256 2863.34,487.544 2863.71,487.544Z" style="fill:rgb(142,142,147);fill-opacity:0.3;fill-rule:nonzero;"/>
        </g>
        <g transform="matrix(1.09077,0,0,1.09077,-2643.82,-487.388)">
            <path d="M2870.59,487.528L2874.61,487.528C2874.97,487.528 2875.28,487.224 2875.28,486.856C2875.28,486.488 2875.58,486.184 2875.95,486.184C2876.32,486.184 2876.61,485.88 2876.61,485.512L2876.61,477.496C2876.61,477.128 2876.32,476.824 2875.95,476.824C2875.58,476.824 2875.28,476.52 2875.28,476.152C2875.28,475.784 2874.97,475.496 2874.61,475.496L2870.59,475.496C2870.22,475.496 2869.93,475.784 2869.93,476.152C2869.93,476.52 2869.63,476.824 2869.26,476.824C2868.89,476.824 2868.59,477.128 2868.59,477.496L2868.59,485.512C2868.59,485.88 2868.89,486.184 2869.26,486.184C2869.63,486.184 2869.93,486.488 2869.93,486.856C2869.93,487.224 2870.22,487.528 2870.59,487.528ZM2873.28,484.856L2871.93,484.856C2871.57,484.856 2871.26,484.552 2871.26,484.184L2871.26,478.824C2871.26,478.456 2871.57,478.168 2871.93,478.168L2873.28,478.168C2873.64,478.168 2873.93,478.456 2873.93,478.824L2873.93,484.184C2873.93,484.552 2873.64,484.856 2873.28,484.856Z" style="fill:rgb(142,142,147);fill-opacity:0.3;fill-rule:nonzero;"/>
        </g>
        <g transform="matrix(1.09077,0,0,1.09077,-2643.82,-487.388)">
            <path d="M2881.36,487.528L2885.37,487.528C2885.74,487.528 2886.05,487.224 2886.05,486.856C2886.05,486.488 2886.35,486.184 2886.72,486.184C2887.09,486.184 2887.37,485.88 2887.37,485.512L2887.37,477.496C2887.37,477.128 2887.09,476.824 2886.72,476.824C2886.35,476.824 2886.05,476.52 2886.05,476.152C2886.05,475.784 2885.74,475.496 2885.37,475.496L2881.36,475.496C2880.99,475.496 2880.7,475.784 2880.7,476.152C2880.7,476.52 2880.4,476.824 2880.03,476.824C2879.66,476.824 2879.36,477.128 2879.36,477.496L2879.36,485.512C2879.36,485.88 2879.66,486.184 2880.03,486.184C2880.4,486.184 2880.7,486.488 2880.7,486.856C2880.7,487.224 2880.99,487.528 2881.36,487.528ZM2884.05,484.856L2882.7,484.856C2882.33,484.856 2882.03,484.552 2882.03,484.184L2882.03,478.824C2882.03,478.456 2882.33,478.168 2882.7,478.168L2884.05,478.168C2884.41,478.168 2884.7,478.456 2884.7,478.824L2884.7,484.184C2884.7,484.552 2884.41,484.856 2884.05,484.856Z" style="fill:rgb(142,142,147);fill-opacity:0.3;fill-rule:nonzero;"/>
        </g>
        <g transform="matrix(1.09077,0,0,1.09077,-2643.82,-487.388)">
            <path d="M2891.68,487.544L2893.01,487.544C2893.37,487.544 2893.68,487.256 2893.68,486.888L2893.68,476.184C2893.68,475.816 2893.37,475.512 2893.01,475.512L2891.68,475.512C2891.31,475.512 2891.01,475.816 2891.01,476.184C2891.01,476.552 2890.7,476.856 2890.33,476.856C2889.97,476.856 2889.66,477.16 2889.66,477.528L2889.66,478.856C2889.66,479.224 2889.97,479.528 2890.33,479.528C2890.7,479.528 2891.01,479.832 2891.01,480.2L2891.01,486.888C2891.01,487.256 2891.31,487.544 2891.68,487.544Z" style="fill:rgb(142,142,147);fill-opacity:0.3;fill-rule:nonzero;"/>
        </g>
        <g transform="matrix(1.09077,0,0,1.09077,-2643.82,-487.388)">
            <path d="M2898.59,487.544L2899.92,487.544C2900.28,487.544 2900.59,487.256 2900.59,486.888L2900.59,476.184C2900.59,475.816 2900.28,475.512 2899.92,475.512L2898.59,475.512C2898.22,475.512 2897.92,475.816 2897.92,476.184C2897.92,476.552 2897.61,476.856 2897.24,476.856C2896.88,476.856 2896.57,477.16 2896.57,477.528L2896.57,478.856C2896.57,479.224 2896.88,479.528 2897.24,479.528C2897.61,479.528 2897.92,479.832 2897.92,480.2L2897.92,486.888C2897.92,487.256 2898.22,487.544 2898.59,487.544Z" style="fill:rgb(142,142,147);fill-opacity:0.3;fill-rule:nonzero;"/>
        </g>
        <g transform="matrix(1.09077,0,0,1.09077,-2643.82,-487.388)">
            <path d="M2905.47,487.528L2909.49,487.528C2909.85,487.528 2910.16,487.224 2910.16,486.856C2910.16,486.488 2910.46,486.184 2910.83,486.184C2911.2,486.184 2911.49,485.88 2911.49,485.512L2911.49,477.496C2911.49,477.128 2911.2,476.824 2910.83,476.824C2910.46,476.824 2910.16,476.52 2910.16,476.152C2910.16,475.784 2909.85,475.496 2909.49,475.496L2905.47,475.496C2905.1,475.496 2904.81,475.784 2904.81,476.152C2904.81,476.52 2904.51,476.824 2904.14,476.824C2903.77,476.824 2903.47,477.128 2903.47,477.496L2903.47,485.512C2903.47,485.88 2903.77,486.184 2904.14,486.184C2904.51,486.184 2904.81,486.488 2904.81,486.856C2904.81,487.224 2905.1,487.528 2905.47,487.528ZM2908.16,484.856L2906.81,484.856C2906.45,484.856 2906.14,484.552 2906.14,484.184L2906.14,478.824C2906.14,478.456 2906.45,478.168 2906.81,478.168L2908.16,478.168C2908.53,478.168 2908.81,478.456 2908.81,478.824L2908.81,484.184C2908.81,484.552 2908.53,484.856 2908.16,484.856Z" style="fill:rgb(142,142,147);fill-opacity:0.3;fill-rule:nonzero;"/>
        </g>
        <g transform="matrix(1.09077,0,0,1.09077,-2570.73,-394.416)">
            <path d="M2846.48,487.528L2850.49,487.528C2850.86,487.528 2851.16,487.224 2851.16,486.856C2851.16,486.488 2851.47,486.184 2851.84,486.184C2852.2,486.184 2852.49,485.88 2852.49,485.512L2852.49,477.496C2852.49,477.128 2852.2,476.824 2851.84,476.824C2851.47,476.824 2851.16,476.52 2851.16,476.152C2851.16,475.784 2850.86,475.496 2850.49,475.496L2846.48,475.496C2846.11,475.496 2845.82,475.784 2845.82,476.152C2845.82,476.52 2845.52,476.824 2845.15,476.824C2844.78,476.824 2844.48,477.128 2844.48,477.496L2844.48,485.512C2844.48,485.88 2844.78,486.184 2845.15,486.184C2845.52,486.184 2845.82,486.488 2845.82,486.856C2845.82,487.224 2846.11,487.528 2846.48,487.528ZM2849.16,484.856L2847.82,484.856C2847.45,484.856 2847.15,484.552 2847.15,484.184L2847.15,478.824C2847.15,478.456 2847.45,478.168 2847.82,478.168L2849.16,478.168C2849.53,478.168 2849.82,478.456 2849.82,478.824L2849.82,484.184C2849.82,484.552 2849.53,484.856 2849.16,484.856Z" style="fill:rgb(142,142,147);fill-opacity:0.2;fill-rule:nonzero;"/>
        </g>
        <g transform="matrix(1.09077,0,0,1.09077,-2570.73,-394.416)">
            <path d="M2856.8,487.544L2858.12,487.544C2858.49,487.544 2858.8,487.256 2858.8,486.888L2858.8,476.184C2858.8,475.816 2858.49,475.512 2858.12,475.512L2856.8,475.512C2856.43,475.512 2856.12,475.816 2856.12,476.184C2856.12,476.552 2855.82,476.856 2855.45,476.856C2855.09,476.856 2854.78,477.16 2854.78,477.528L2854.78,478.856C2854.78,479.224 2855.09,479.528 2855.45,479.528C2855.82,479.528 2856.12,479.832 2856.12,480.2L2856.12,486.888C2856.12,487.256 2856.43,487.544 2856.8,487.544Z" style="fill:rgb(142,142,147);fill-opacity:0.2;fill-rule:nonzero;"/>
        </g>
        <g transform="matrix(1.09077,0,0,1.09077,-2570.73,-394.416)">
            <path d="M2863.71,487.544L2865.04,487.544C2865.41,487.544 2865.71,487.256 2865.71,486.888L2865.71,476.184C2865.71,475.816 2865.41,475.512 2865.04,475.512L2863.71,475.512C2863.34,475.512 2863.04,475.816 2863.04,476.184C2863.04,476.552 2862.73,476.856 2862.37,476.856C2862,476.856 2861.69,477.16 2861.69,477.528L2861.69,478.856C2861.69,479.224 2862,479.528 2862.37,479.528C2862.73,479.528 2863.04,479.832 2863.04,480.2L2863.04,486.888C2863.04,487.256 2863.34,487.544 2863.71,487.544Z" style="fill:rgb(142,142,147);fill-opacity:0.2;fill-rule:nonzero;"/>
        </g>
        <g transform="matrix(1.09077,0,0,1.09077,-2570.73,-394.416)">
            <path d="M2870.59,487.528L2874.61,487.528C2874.97,487.528 2875.28,487.224 2875.28,486.856C2875.28,486.488 2875.58,486.184 2875.95,486.184C2876.32,486.184 2876.61,485.88 2876.61,485.512L2876.61,477.496C2876.61,477.128 2876.32,476.824 2875.95,476.824C2875.58,476.824 2875.28,476.52 2875.28,476.152C2875.28,475.784 2874.97,475.496 2874.61,475.496L2870.59,475.496C2870.22,475.496 2869.93,475.784 2869.93,476.152C2869.93,476.52 2869.63,476.824 2869.26,476.824C2868.89,476.824 2868.59,477.128 2868.59,477.496L2868.59,485.512C2868.59,485.88 2868.89,486.184 2869.26,486.184C2869.63,486.184 2869.93,486.488 2869.93,486.856C2869.93,487.224 2870.22,487.528 2870.59,487.528ZM2873.28,484.856L2871.93,484.856C2871.57,484.856 2871.26,484.552 2871.26,484.184L2871.26,478.824C2871.26,478.456 2871.57,478.168 2871.93,478.168L2873.28,478.168C2873.64,478.168 2873.93,478.456 2873.93,478.824L2873.93,484.184C2873.93,484.552 2873.64,484.856 2873.28,484.856Z" style="fill:rgb(142,142,147);fill-opacity:0.2;fill-rule:nonzero;"/>
        </g>
        <g transform="matrix(1.09077,0,0,1.09077,-2570.73,-394.416)">
            <path d="M2881.36,487.528L2885.37,487.528C2885.74,487.528 2886.05,487.224 2886.05,486.856C2886.05,486.488 2886.35,486.184 2886.72,486.184C2887.09,486.184 2887.37,485.88 2887.37,485.512L2887.37,477.496C2887.37,477.128 2887.09,476.824 2886.72,476.824C2886.35,476.824 2886.05,476.52 2886.05,476.152C2886.05,475.784 2885.74,475.496 2885.37,475.496L2881.36,475.496C2880.99,475.496 2880.7,475.784 2880.7,476.152C2880.7,476.52 2880.4,476.824 2880.03,476.824C2879.66,476.824 2879.36,477.128 2879.36,477.496L2879.36,485.512C2879.36,485.88 2879.66,486.184 2880.03,486.184C2880.4,486.184 2880.7,486.488 2880.7,486.856C2880.7,487.224 2880.99,487.528 2881.36,487.528ZM2884.05,484.856L2882.7,484.856C2882.33,484.856 2882.03,484.552 2882.03,484.184L2882.03,478.824C2882.03,478.456 2882.33,478.168 2882.7,478.168L2884.05,478.168C2884.41,478.168 2884.7,478.456 2884.7,478.824L2884.7,484.184C2884.7,484.552 2884.41,484.856 2884.05,484.856Z" style="fill:rgb(142,142,147);fill-opacity:0.2;fill-rule:nonzero;"/>
        </g>
        <g transform="matrix(1.09077,0,0,1.09077,-2570.73,-394.416)">
            <path d="M2891.68,487.544L2893.01,487.544C2893.37,487.544 2893.68,487.256 2893.68,486.888L2893.68,476.184C2893.68,475.816 2893.37,475.512 2893.01,475.512L2891.68,475.512C2891.31,475.512 2891.01,475.816 2891.01,476.184C2891.01,476.552 2890.7,476.856 2890.33,476.856C2889.97,476.856 2889.66,477.16 2889.66,477.528L2889.66,478.856C2889.66,479.224 2889.97,479.528 2890.33,479.528C2890.7,479.528 2891.01,479.832 2891.01,480.2L2891.01,486.888C2891.01,487.256 2891.31,487.544 2891.68,487.544Z" style="fill:rgb(142,142,147);fill-opacity:0.2;fill-rule:nonzero;"/>
        </g>
        <g transform="matrix(1.09077,0,0,1.09077,-2570.73,-394.416)">
            <path d="M2898.56,487.528L2902.57,487.528C2902.94,487.528 2903.24,487.224 2903.24,486.856C2903.24,486.488 2903.55,486.184 2903.92,486.184C2904.28,486.184 2904.57,485.88 2904.57,485.512L2904.57,477.496C2904.57,477.128 2904.28,476.824 2903.92,476.824C2903.55,476.824 2903.24,476.52 2903.24,476.152C2903.24,475.784 2902.94,475.496 2902.57,475.496L2898.56,475.496C2898.19,475.496 2897.9,475.784 2897.9,476.152C2897.9,476.52 2897.6,476.824 2897.23,476.824C2896.86,476.824 2896.56,477.128 2896.56,477.496L2896.56,485.512C2896.56,485.88 2896.86,486.184 2897.23,486.184C2897.6,486.184 2897.9,486.488 2897.9,486.856C2897.9,487.224 2898.19,487.528 2898.56,487.528ZM2901.24,484.856L2899.9,484.856C2899.53,484.856 2899.23,484.552 2899.23,484.184L2899.23,478.824C2899.23,478.456 2899.53,478.168 2899.9,478.168L2901.24,478.168C2901.61,478.168 2901.9,478.456 2901.9,478.824L2901.9,484.184C2901.9,484.552 2901.61,484.856 2901.24,484.856Z" style="fill:rgb(142,142,147);fill-opacity:0.2;fill-rule:nonzero;"/>
        </g>
        <g transform="matrix(1.09077,0,0,1.09077,-2570.73,-394.416)">
            <path d="M2908.88,487.544L2910.2,487.544C2910.57,487.544 2910.88,487.256 2910.88,486.888L2910.88,476.184C2910.88,475.816 2910.57,475.512 2910.2,475.512L2908.88,475.512C2908.51,475.512 2908.2,475.816 2908.2,476.184C2908.2,476.552 2907.9,476.856 2907.53,476.856C2907.16,476.856 2906.86,477.16 2906.86,477.528L2906.86,478.856C2906.86,479.224 2907.16,479.528 2907.53,479.528C2907.9,479.528 2908.2,479.832 2908.2,480.2L2908.2,486.888C2908.2,487.256 2908.51,487.544 2908.88,487.544Z" style="fill:rgb(142,142,147);fill-opacity:0.2;fill-rule:nonzero;"/>
        </g>
        <g transform="matrix(6.67902e-17,-1.09077,1.09077,6.67902e-17,-100.616,3224.72)">
            <path d="M2846.48,487.528L2850.49,487.528C2850.86,487.528 2851.16,487.224 2851.16,486.856C2851.16,486.488 2851.47,486.184 2851.84,486.184C2852.2,486.184 2852.49,485.88 2852.49,485.512L2852.49,477.496C2852.49,477.128 2852.2,476.824 2851.84,476.824C2851.47,476.824 2851.16,476.52 2851.16,476.152C2851.16,475.784 2850.86,475.496 2850.49,475.496L2846.48,475.496C2846.11,475.496 2845.82,475.784 2845.82,476.152C2845.82,476.52 2845.52,476.824 2845.15,476.824C2844.78,476.824 2844.48,477.128 2844.48,477.496L2844.48,485.512C2844.48,485.88 2844.78,486.184 2845.15,486.184C2845.52,486.184 2845.82,486.488 2845.82,486.856C2845.82,487.224 2846.11,487.528 2846.48,487.528ZM2849.16,484.856L2847.82,484.856C2847.45,484.856 2847.15,484.552 2847.15,484.184L2847.15,478.824C2847.15,478.456 2847.45,478.168 2847.82,478.168L2849.16,478.168C2849.53,478.168 2849.82,478.456 2849.82,478.824L2849.82,484.184C2849.82,484.552 2849.53,484.856 2849.16,484.856Z" style="fill:rgb(142,142,147);fill-opacity:0.2;fill-rule:nonzero;"/>
        </g>
        <g transform="matrix(6.67902e-17,-1.09077,1.09077,6.67902e-17,-100.616,3224.72)">
            <path d="M2856.8,487.544L2858.12,487.544C2858.49,487.544 2858.8,487.256 2858.8,486.888L2858.8,476.184C2858.8,475.816 2858.49,475.512 2858.12,475.512L2856.8,475.512C2856.43,475.512 2856.12,475.816 2856.12,476.184C2856.12,476.552 2855.82,476.856 2855.45,476.856C2855.09,476.856 2854.78,477.16 2854.78,477.528L2854.78,478.856C2854.78,479.224 2855.09,479.528 2855.45,479.528C2855.82,479.528 2856.12,479.832 2856.12,480.2L2856.12,486.888C2856.12,487.256 2856.43,487.544 2856.8,487.544Z" style="fill:rgb(142,142,147);fill-opacity:0.2;fill-rule:nonzero;"/>
        </g>
        <g transform="matrix(6.67902e-17,-1.09077,1.09077,6.67902e-17,-100.616,3224.72)">
            <path d="M2863.71,487.544L2865.04,487.544C2865.41,487.544 2865.71,487.256 2865.71,486.888L2865.71,476.184C2865.71,475.816 2865.41,475.512 2865.04,475.512L2863.71,475.512C2863.34,475.512 2863.04,475.816 2863.04,476.184C2863.04,476.552 2862.73,476.856 2862.37,476.856C2862,476.856 2861.69,477.16 2861.69,477.528L2861.69,478.856C2861.69,479.224 2862,479.528 2862.37,479.528C2862.73,479.528 2863.04,479.832 2863.04,480.2L2863.04,486.888C2863.04,487.256 2863.34,487.544 2863.71,487.544Z" style="fill:rgb(142,142,147);fill-opacity:0.2;fill-rule:nonzero;"/>
        </g>
        <g transform="matrix(6.67902e-17,-1.09077,1.09077,6.67902e-17,-100.616,3224.72)">
            <path d="M2870.59,487.528L2874.61,487.528C2874.97,487.528 2875.28,487.224 2875.28,486.856C2875.28,486.488 2875.58,486.184 2875.95,486.184C2876.32,486.184 2876.61,485.88 2876.61,485.512L2876.61,477.496C2876.61,477.128 2876.32,476.824 2875.95,476.824C2875.58,476.824 2875.28,476.52 2875.28,476.152C2875.28,475.784 2874.97,475.496 2874.61,475.496L2870.59,475.496C2870.22,475.496 2869.93,475.784 2869.93,476.152C2869.93,476.52 2869.63,476.824 2869.26,476.824C2868.89,476.824 2868.59,477.128 2868.59,477.496L2868.59,485.512C2868.59,485.88 2868.89,486.184 2869.26,486.184C2869.63,486.184 2869.93,486.488 2869.93,486.856C2869.93,487.224 2870.22,487.528 2870.59,487.528ZM2873.28,484.856L2871.93,484.856C2871.57,484.856 2871.26,484.552 2871.26,484.184L2871.26,478.824C2871.26,478.456 2871.57,478.168 2871.93,478.168L2873.28,478.168C2873.64,478.168 2873.93,478.456 2873.93,478.824L2873.93,484.184C2873.93,484.552 2873.64,484.856 2873.28,484.856Z" style="fill:rgb(142,142,147);fill-opacity:0.2;fill-rule:nonzero;"/>
        </g>
        <g transform="matrix(6.67902e-17,-1.09077,1.09077,6.67902e-17,-100.616,3224.72)">
            <path d="M2880.91,487.544L2882.24,487.544C2882.61,487.544 2882.91,487.256 2882.91,486.888L2882.91,476.184C2882.91,475.816 2882.61,475.512 2882.24,475.512L2880.91,475.512C2880.54,475.512 2880.24,475.816 2880.24,476.184C2880.24,476.552 2879.93,476.856 2879.57,476.856C2879.2,476.856 2878.89,477.16 2878.89,477.528L2878.89,478.856C2878.89,479.224 2879.2,479.528 2879.57,479.528C2879.93,479.528 2880.24,479.832 2880.24,480.2L2880.24,486.888C2880.24,487.256 2880.54,487.544 2880.91,487.544Z" style="fill:rgb(142,142,147);fill-opacity:0.2;fill-rule:nonzero;"/>
        </g>
        <g transform="matrix(6.67902e-17,-1.09077,1.09077,6.67902e-17,-100.616,3224.72)">
            <path d="M2887.79,487.528L2891.8,487.528C2892.17,487.528 2892.48,487.224 2892.48,486.856C2892.48,486.488 2892.78,486.184 2893.15,486.184C2893.52,486.184 2893.8,485.88 2893.8,485.512L2893.8,477.496C2893.8,477.128 2893.52,476.824 2893.15,476.824C2892.78,476.824 2892.48,476.52 2892.48,476.152C2892.48,475.784 2892.17,475.496 2891.8,475.496L2887.79,475.496C2887.42,475.496 2887.13,475.784 2887.13,476.152C2887.13,476.52 2886.83,476.824 2886.46,476.824C2886.09,476.824 2885.79,477.128 2885.79,477.496L2885.79,485.512C2885.79,485.88 2886.09,486.184 2886.46,486.184C2886.83,486.184 2887.13,486.488 2887.13,486.856C2887.13,487.224 2887.42,487.528 2887.79,487.528ZM2890.48,484.856L2889.13,484.856C2888.76,484.856 2888.46,484.552 2888.46,484.184L2888.46,478.824C2888.46,478.456 2888.76,478.168 2889.13,478.168L2890.48,478.168C2890.85,478.168 2891.13,478.456 2891.13,478.824L2891.13,484.184C2891.13,484.552 2890.85,484.856 2890.48,484.856Z" style="fill:rgb(142,142,147);fill-opacity:0.2;fill-rule:nonzero;"/>
        </g>
        <g transform="matrix(6.67902e-17,-1.09077,1.09077,6.67902e-17,-100.616,3224.72)">
            <path d="M2898.56,487.528L2902.57,487.528C2902.94,487.528 2903.24,487.224 2903.24,486.856C2903.24,486.488 2903.55,486.184 2903.92,486.184C2904.28,486.184 2904.57,485.88 2904.57,485.512L2904.57,477.496C2904.57,477.128 2904.28,476.824 2903.92,476.824C2903.55,476.824 2903.24,476.52 2903.24,476.152C2903.24,475.784 2902.94,475.496 2902.57,475.496L2898.56,475.496C2898.19,475.496 2897.9,475.784 2897.9,476.152C2897.9,476.52 2897.6,476.824 2897.23,476.824C2896.86,476.824 2896.56,477.128 2896.56,477.496L2896.56,485.512C2896.56,485.88 2896.86,486.184 2897.23,486.184C2897.6,486.184 2897.9,486.488 2897.9,486.856C2897.9,487.224 2898.19,487.528 2898.56,487.528ZM2901.24,484.856L2899.9,484.856C2899.53,484.856 2899.23,484.552 2899.23,484.184L2899.23,478.824C2899.23,478.456 2899.53,478.168 2899.9,478.168L2901.24,478.168C2901.61,478.168 2901.9,478.456 2901.9,478.824L2901.9,484.184C2901.9,484.552 2901.61,484.856 2901.24,484.856Z" style="fill:rgb(142,142,147);fill-opacity:0.2;fill-rule:nonzero;"/>
        </g>
        <g transform="matrix(6.67902e-17,-1.09077,1.09077,6.67902e-17,-100.616,3224.72)">
            <path d="M2908.88,487.544L2910.2,487.544C2910.57,487.544 2910.88,487.256 2910.88,486.888L2910.88,476.184C2910.88,475.816 2910.57,475.512 2910.2,475.512L2908.88,475.512C2908.51,475.512 2908.2,475.816 2908.2,476.184C2908.2,476.552 2907.9,476.856 2907.53,476.856C2907.16,476.856 2906.86,477.16 2906.86,477.528L2906.86,478.856C2906.86,479.224 2907.16,479.528 2907.53,479.528C2907.9,479.528 2908.2,479.832 2908.2,480.2L2908.2,486.888C2908.2,487.256 2908.51,487.544 2908.88,487.544Z" style="fill:rgb(142,142,147);fill-opacity:0.2;fill-rule:nonzero;"/>
        </g>
        <g transform="matrix(1.09077,0,0,1.09077,-2718.42,-331.779)">
            <path d="M2846.48,487.528L2850.49,487.528C2850.86,487.528 2851.16,487.224 2851.16,486.856C2851.16,486.488 2851.47,486.184 2851.84,486.184C2852.2,486.184 2852.49,485.88 2852.49,485.512L2852.49,477.496C2852.49,477.128 2852.2,476.824 2851.84,476.824C2851.47,476.824 2851.16,476.52 2851.16,476.152C2851.16,475.784 2850.86,475.496 2850.49,475.496L2846.48,475.496C2846.11,475.496 2845.82,475.784 2845.82,476.152C2845.82,476.52 2845.52,476.824 2845.15,476.824C2844.78,476.824 2844.48,477.128 2844.48,477.496L2844.48,485.512C2844.48,485.88 2844.78,486.184 2845.15,486.184C2845.52,486.184 2845.82,486.488 2845.82,486.856C2845.82,487.224 2846.11,487.528 2846.48,487.528ZM2849.16,484.856L2847.82,484.856C2847.45,484.856 2847.15,484.552 2847.15,484.184L2847.15,478.824C2847.15,478.456 2847.45,478.168 2847.82,478.168L2849.16,478.168C2849.53,478.168 2849.82,478.456 2849.82,478.824L2849.82,484.184C2849.82,484.552 2849.53,484.856 2849.16,484.856Z" style="fill:rgb(142,142,147);fill-opacity:0.3;fill-rule:nonzero;"/>
        </g>
        <g transform="matrix(1.09077,0,0,1.09077,-2718.42,-331.779)">
            <path d="M2856.8,487.544L2858.12,487.544C2858.49,487.544 2858.8,487.256 2858.8,486.888L2858.8,476.184C2858.8,475.816 2858.49,475.512 2858.12,475.512L2856.8,475.512C2856.43,475.512 2856.12,475.816 2856.12,476.184C2856.12,476.552 2855.82,476.856 2855.45,476.856C2855.09,476.856 2854.78,477.16 2854.78,477.528L2854.78,478.856C2854.78,479.224 2855.09,479.528 2855.45,479.528C2855.82,479.528 2856.12,479.832 2856.12,480.2L2856.12,486.888C2856.12,487.256 2856.43,487.544 2856.8,487.544Z" style="fill:rgb(142,142,147);fill-opacity:0.3;fill-rule:nonzero;"/>
        </g>
        <g transform="matrix(1.09077,0,0,1.09077,-2718.42,-331.779)">
            <path d="M2863.71,487.544L2865.04,487.544C2865.41,487.544 2865.71,487.256 2865.71,486.888L2865.71,476.184C2865.71,475.816 2865.41,475.512 2865.04,475.512L2863.71,475.512C2863.34,475.512 2863.04,475.816 2863.04,476.184C2863.04,476.552 2862.73,476.856 2862.37,476.856C2862,476.856 2861.69,477.16 2861.69,477.528L2861.69,478.856C2861.69,479.224 2862,479.528 2862.37,479.528C2862.73,479.528 2863.04,479.832 2863.04,480.2L2863.04,486.888C2863.04,487.256 2863.34,487.544 2863.71,487.544Z" style="fill:rgb(142,142,147);fill-opacity:0.3;fill-rule:nonzero;"/>
        </g>
        <g transform="matrix(1.09077,0,0,1.09077,-2718.42,-331.779)">
            <path d="M2870.59,487.528L2874.61,487.528C2874.97,487.528 2875.28,487.224 2875.28,486.856C2875.28,486.488 2875.58,486.184 2875.95,486.184C2876.32,486.184 2876.61,485.88 2876.61,485.512L2876.61,477.496C2876.61,477.128 2876.32,476.824 2875.95,476.824C2875.58,476.824 2875.28,476.52 2875.28,476.152C2875.28,475.784 2874.97,475.496 2874.61,475.496L2870.59,475.496C2870.22,475.496 2869.93,475.784 2869.93,476.152C2869.93,476.52 2869.63,476.824 2869.26,476.824C2868.89,476.824 2868.59,477.128 2868.59,477.496L2868.59,485.512C2868.59,485.88 2868.89,486.184 2869.26,486.184C2869.63,486.184 2869.93,486.488 2869.93,486.856C2869.93,487.224 2870.22,487.528 2870.59,487.528ZM2873.28,484.856L2871.93,484.856C2871.57,484.856 2871.26,484.552 2871.26,484.184L2871.26,478.824C2871.26,478.456 2871.57,478.168 2871.93,478.168L2873.28,478.168C2873.64,478.168 2873.93,478.456 2873.93,478.824L2873.93,484.184C2873.93,484.552 2873.64,484.856 2873.28,484.856Z" style="fill:rgb(142,142,147);fill-opacity:0.3;fill-rule:nonzero;"/>
        </g>
        <g transform="matrix(1.09077,0,0,1.09077,-2718.42,-331.779)">
            <path d="M2880.91,487.544L2882.24,487.544C2882.61,487.544 2882.91,487.256 2882.91,486.888L2882.91,476.184C2882.91,475.816 2882.61,475.512 2882.24,475.512L2880.91,475.512C2880.54,475.512 2880.24,475.816 2880.24,476.184C2880.24,476.552 2879.93,476.856 2879.57,476.856C2879.2,476.856 2878.89,477.16 2878.89,477.528L2878.89,478.856C2878.89,479.224 2879.2,479.528 2879.57,479.528C2879.93,479.528 2880.24,479.832 2880.24,480.2L2880.24,486.888C2880.24,487.256 2880.54,487.544 2880.91,487.544Z" style="fill:rgb(142,142,147);fill-opacity:0.3;fill-rule:nonzero;"/>
        </g>
        <g transform="matrix(1.09077,0,0,1.09077,-2718.42,-331.779)">
            <path d="M2887.82,487.544L2889.15,487.544C2889.52,487.544 2889.82,487.256 2889.82,486.888L2889.82,476.184C2889.82,475.816 2889.52,475.512 2889.15,475.512L2887.82,475.512C2887.45,475.512 2887.15,475.816 2887.15,476.184C2887.15,476.552 2886.85,476.856 2886.48,476.856C2886.11,476.856 2885.8,477.16 2885.8,477.528L2885.8,478.856C2885.8,479.224 2886.11,479.528 2886.48,479.528C2886.85,479.528 2887.15,479.832 2887.15,480.2L2887.15,486.888C2887.15,487.256 2887.45,487.544 2887.82,487.544Z" style="fill:rgb(142,142,147);fill-opacity:0.3;fill-rule:nonzero;"/>
        </g>
        <g transform="matrix(1.09077,0,0,1.09077,-2718.42,-331.779)">
            <path d="M2894.7,487.528L2898.72,487.528C2899.09,487.528 2899.39,487.224 2899.39,486.856C2899.39,486.488 2899.69,486.184 2900.06,486.184C2900.43,486.184 2900.72,485.88 2900.72,485.512L2900.72,477.496C2900.72,477.128 2900.43,476.824 2900.06,476.824C2899.69,476.824 2899.39,476.52 2899.39,476.152C2899.39,475.784 2899.09,475.496 2898.72,475.496L2894.7,475.496C2894.33,475.496 2894.05,475.784 2894.05,476.152C2894.05,476.52 2893.74,476.824 2893.37,476.824C2893.01,476.824 2892.7,477.128 2892.7,477.496L2892.7,485.512C2892.7,485.88 2893.01,486.184 2893.37,486.184C2893.74,486.184 2894.05,486.488 2894.05,486.856C2894.05,487.224 2894.33,487.528 2894.7,487.528ZM2897.39,484.856L2896.05,484.856C2895.68,484.856 2895.37,484.552 2895.37,484.184L2895.37,478.824C2895.37,478.456 2895.68,478.168 2896.05,478.168L2897.39,478.168C2897.76,478.168 2898.05,478.456 2898.05,478.824L2898.05,484.184C2898.05,484.552 2897.76,484.856 2897.39,484.856Z" style="fill:rgb(142,142,147);fill-opacity:0.3;fill-rule:nonzero;"/>
        </g>
        <g transform="matrix(1.09077,0,0,1.09077,-2718.42,-331.779)">
            <path d="M2905.47,487.528L2909.49,487.528C2909.85,487.528 2910.16,487.224 2910.16,486.856C2910.16,486.488 2910.46,486.184 2910.83,486.184C2911.2,486.184 2911.49,485.88 2911.49,485.512L2911.49,477.496C2911.49,477.128 2911.2,476.824 2910.83,476.824C2910.46,476.824 2910.16,476.52 2910.16,476.152C2910.16,475.784 2909.85,475.496 2909.49,475.496L2905.47,475.496C2905.1,475.496 2904.81,475.784 2904.81,476.152C2904.81,476.52 2904.51,476.824 2904.14,476.824C2903.77,476.824 2903.47,477.128 2903.47,477.496L2903.47,485.512C2903.47,485.88 2903.77,486.184 2904.14,486.184C2904.51,486.184 2904.81,486.488 2904.81,486.856C2904.81,487.224 2905.1,487.528 2905.47,487.528ZM2908.16,484.856L2906.81,484.856C2906.45,484.856 2906.14,484.552 2906.14,484.184L2906.14,478.824C2906.14,478.456 2906.45,478.168 2906.81,478.168L2908.16,478.168C2908.53,478.168 2908.81,478.456 2908.81,478.824L2908.81,484.184C2908.81,484.552 2908.53,484.856 2908.16,484.856Z" style="fill:rgb(142,142,147);fill-opacity:0.3;fill-rule:nonzero;"/>
        </g>
        <g transform="matrix(1.09077,0,0,1.09077,-2867.86,-382.978)">
            <path d="M2846.48,487.528L2850.49,487.528C2850.86,487.528 2851.16,487.224 2851.16,486.856C2851.16,486.488 2851.47,486.184 2851.84,486.184C2852.2,486.184 2852.49,485.88 2852.49,485.512L2852.49,477.496C2852.49,477.128 2852.2,476.824 2851.84,476.824C2851.47,476.824 2851.16,476.52 2851.16,476.152C2851.16,475.784 2850.86,475.496 2850.49,475.496L2846.48,475.496C2846.11,475.496 2845.82,475.784 2845.82,476.152C2845.82,476.52 2845.52,476.824 2845.15,476.824C2844.78,476.824 2844.48,477.128 2844.48,477.496L2844.48,485.512C2844.48,485.88 2844.78,486.184 2845.15,486.184C2845.52,486.184 2845.82,486.488 2845.82,486.856C2845.82,487.224 2846.11,487.528 2846.48,487.528ZM2849.16,484.856L2847.82,484.856C2847.45,484.856 2847.15,484.552 2847.15,484.184L2847.15,478.824C2847.15,478.456 2847.45,478.168 2847.82,478.168L2849.16,478.168C2849.53,478.168 2849.82,478.456 2849.82,478.824L2849.82,484.184C2849.82,484.552 2849.53,484.856 2849.16,484.856Z" style="fill:rgb(142,142,147);fill-opacity:0.3;fill-rule:nonzero;"/>
        </g>
        <g transform="matrix(1.09077,0,0,1.09077,-2867.86,-382.978)">
            <path d="M2856.8,487.544L2858.12,487.544C2858.49,487.544 2858.8,487.256 2858.8,486.888L2858.8,476.184C2858.8,475.816 2858.49,475.512 2858.12,475.512L2856.8,475.512C2856.43,475.512 2856.12,475.816 2856.12,476.184C2856.12,476.552 2855.82,476.856 2855.45,476.856C2855.09,476.856 2854.78,477.16 2854.78,477.528L2854.78,478.856C2854.78,479.224 2855.09,479.528 2855.45,479.528C2855.82,479.528 2856.12,479.832 2856.12,480.2L2856.12,486.888C2856.12,487.256 2856.43,487.544 2856.8,487.544Z" style="fill:rgb(142,142,147);fill-opacity:0.3;fill-rule:nonzero;"/>
        </g>
        <g transform="matrix(1.09077,0,0,1.09077,-2867.86,-382.978)">
            <path d="M2863.71,487.544L2865.04,487.544C2865.41,487.544 2865.71,487.256 2865.71,486.888L2865.71,476.184C2865.71,475.816 2865.41,475.512 2865.04,475.512L2863.71,475.512C2863.34,475.512 2863.04,475.816 2863.04,476.184C2863.04,476.552 2862.73,476.856 2862.37,476.856C2862,476.856 2861.69,477.16 2861.69,477.528L2861.69,478.856C2861.69,479.224 2862,479.528 2862.37,479.528C2862.73,479.528 2863.04,479.832 2863.04,480.2L2863.04,486.888C2863.04,487.256 2863.34,487.544 2863.71,487.544Z" style="fill:rgb(142,142,147);fill-opacity:0.3;fill-rule:nonzero;"/>
        </g>
        <g transform="matrix(1.09077,0,0,1.09077,-2867.86,-382.978)">
            <path d="M2870.59,487.528L2874.61,487.528C2874.97,487.528 2875.28,487.224 2875.28,486.856C2875.28,486.488 2875.58,486.184 2875.95,486.184C2876.32,486.184 2876.61,485.88 2876.61,485.512L2876.61,477.496C2876.61,477.128 2876.32,476.824 2875.95,476.824C2875.58,476.824 2875.28,476.52 2875.28,476.152C2875.28,475.784 2874.97,475.496 2874.61,475.496L2870.59,475.496C2870.22,475.496 2869.93,475.784 2869.93,476.152C2869.93,476.52 2869.63,476.824 2869.26,476.824C2868.89,476.824 2868.59,477.128 2868.59,477.496L2868.59,485.512C2868.59,485.88 2868.89,486.184 2869.26,486.184C2869.63,486.184 2869.93,486.488 2869.93,486.856C2869.93,487.224 2870.22,487.528 2870.59,487.528ZM2873.28,484.856L2871.93,484.856C2871.57,484.856 2871.26,484.552 2871.26,484.184L2871.26,478.824C2871.26,478.456 2871.57,478.168 2871.93,478.168L2873.28,478.168C2873.64,478.168 2873.93,478.456 2873.93,478.824L2873.93,484.184C2873.93,484.552 2873.64,484.856 2873.28,484.856Z" style="fill:rgb(142,142,147);fill-opacity:0.3;fill-rule:nonzero;"/>
        </g>
        <g transform="matrix(1.09077,0,0,1.09077,-2867.86,-382.978)">
            <path d="M2880.91,487.544L2882.24,487.544C2882.61,487.544 2882.91,487.256 2882.91,486.888L2882.91,476.184C2882.91,475.816 2882.61,475.512 2882.24,475.512L2880.91,475.512C2880.54,475.512 2880.24,475.816 2880.24,476.184C2880.24,476.552 2879.93,476.856 2879.57,476.856C2879.2,476.856 2878.89,477.16 2878.89,477.528L2878.89,478.856C2878.89,479.224 2879.2,479.528 2879.57,479.528C2879.93,479.528 2880.24,479.832 2880.24,480.2L2880.24,486.888C2880.24,487.256 2880.54,487.544 2880.91,487.544Z" style="fill:rgb(142,142,147);fill-opacity:0.3;fill-rule:nonzero;"/>
        </g>
        <g transform="matrix(1.09077,0,0,1.09077,-2867.86,-382.978)">
            <path d="M2887.79,487.528L2891.8,487.528C2892.17,487.528 2892.48,487.224 2892.48,486.856C2892.48,486.488 2892.78,486.184 2893.15,486.184C2893.52,486.184 2893.8,485.88 2893.8,485.512L2893.8,477.496C2893.8,477.128 2893.52,476.824 2893.15,476.824C2892.78,476.824 2892.48,476.52 2892.48,476.152C2892.48,475.784 2892.17,475.496 2891.8,475.496L2887.79,475.496C2887.42,475.496 2887.13,475.784 2887.13,476.152C2887.13,476.52 2886.83,476.824 2886.46,476.824C2886.09,476.824 2885.79,477.128 2885.79,477.496L2885.79,485.512C2885.79,485.88 2886.09,486.184 2886.46,486.184C2886.83,486.184 2887.13,486.488 2887.13,486.856C2887.13,487.224 2887.42,487.528 2887.79,487.528ZM2890.48,484.856L2889.13,484.856C2888.76,484.856 2888.46,484.552 2888.46,484.184L2888.46,478.824C2888.46,478.456 2888.76,478.168 2889.13,478.168L2890.48,478.168C2890.85,478.168 2891.13,478.456 2891.13,478.824L2891.13,484.184C2891.13,484.552 2890.85,484.856 2890.48,484.856Z" style="fill:rgb(142,142,147);fill-opacity:0.3;fill-rule:nonzero;"/>
        </g>
        <g transform="matrix(1.09077,0,0,1.09077,-2867.86,-382.978)">
            <path d="M2898.11,487.544L2899.44,487.544C2899.8,487.544 2900.11,487.256 2900.11,486.888L2900.11,476.184C2900.11,475.816 2899.8,475.512 2899.44,475.512L2898.11,475.512C2897.74,475.512 2897.44,475.816 2897.44,476.184C2897.44,476.552 2897.13,476.856 2896.76,476.856C2896.4,476.856 2896.09,477.16 2896.09,477.528L2896.09,478.856C2896.09,479.224 2896.4,479.528 2896.76,479.528C2897.13,479.528 2897.44,479.832 2897.44,480.2L2897.44,486.888C2897.44,487.256 2897.74,487.544 2898.11,487.544Z" style="fill:rgb(142,142,147);fill-opacity:0.3;fill-rule:nonzero;"/>
        </g>
        <g transform="matrix(1.09077,0,0,1.09077,-2867.86,-382.978)">
            <path d="M2905.02,487.544L2906.35,487.544C2906.72,487.544 2907.02,487.256 2907.02,486.888L2907.02,476.184C2907.02,475.816 2906.72,475.512 2906.35,475.512L2905.02,475.512C2904.65,475.512 2904.35,475.816 2904.35,476.184C2904.35,476.552 2904.05,476.856 2903.68,476.856C2903.31,476.856 2903.01,477.16 2903.01,477.528L2903.01,478.856C2903.01,479.224 2903.31,479.528 2903.68,479.528C2904.05,479.528 2904.35,479.832 2904.35,480.2L2904.35,486.888C2904.35,487.256 2904.65,487.544 2905.02,487.544Z" style="fill:rgb(142,142,147);fill-opacity:0.3;fill-rule:nonzero;"/>
        </g>
        <g transform="matrix(1.09077,0,0,1.09077,-3024.3,-394.348)">
            <path d="M2846.48,487.528L2850.49,487.528C2850.86,487.528 2851.16,487.224 2851.16,486.856C2851.16,486.488 2851.47,486.184 2851.84,486.184C2852.2,486.184 2852.49,485.88 2852.49,485.512L2852.49,477.496C2852.49,477.128 2852.2,476.824 2851.84,476.824C2851.47,476.824 2851.16,476.52 2851.16,476.152C2851.16,475.784 2850.86,475.496 2850.49,475.496L2846.48,475.496C2846.11,475.496 2845.82,475.784 2845.82,476.152C2845.82,476.52 2845.52,476.824 2845.15,476.824C2844.78,476.824 2844.48,477.128 2844.48,477.496L2844.48,485.512C2844.48,485.88 2844.78,486.184 2845.15,486.184C2845.52,486.184 2845.82,486.488 2845.82,486.856C2845.82,487.224 2846.11,487.528 2846.48,487.528ZM2849.16,484.856L2847.82,484.856C2847.45,484.856 2847.15,484.552 2847.15,484.184L2847.15,478.824C2847.15,478.456 2847.45,478.168 2847.82,478.168L2849.16,478.168C2849.53,478.168 2849.82,478.456 2849.82,478.824L2849.82,484.184C2849.82,484.552 2849.53,484.856 2849.16,484.856Z" style="fill:rgb(142,142,147);fill-opacity:0.4;fill-rule:nonzero;"/>
        </g>
        <g transform="matrix(1.09077,0,0,1.09077,-3024.3,-394.348)">
            <path d="M2856.8,487.544L2858.12,487.544C2858.49,487.544 2858.8,487.256 2858.8,486.888L2858.8,476.184C2858.8,475.816 2858.49,475.512 2858.12,475.512L2856.8,475.512C2856.43,475.512 2856.12,475.816 2856.12,476.184C2856.12,476.552 2855.82,476.856 2855.45,476.856C2855.09,476.856 2854.78,477.16 2854.78,477.528L2854.78,478.856C2854.78,479.224 2855.09,479.528 2855.45,479.528C2855.82,479.528 2856.12,479.832 2856.12,480.2L2856.12,486.888C2856.12,487.256 2856.43,487.544 2856.8,487.544Z" style="fill:rgb(142,142,147);fill-opacity:0.4;fill-rule:nonzero;"/>
        </g>
        <g transform="matrix(1.09077,0,0,1.09077,-3024.3,-394.348)">
            <path d="M2863.71,487.544L2865.04,487.544C2865.41,487.544 2865.71,487.256 2865.71,486.888L2865.71,476.184C2865.71,475.816 2865.41,475.512 2865.04,475.512L2863.71,475.512C2863.34,475.512 2863.04,475.816 2863.04,476.184C2863.04,476.552 2862.73,476.856 2862.37,476.856C2862,476.856 2861.69,477.16 2861.69,477.528L2861.69,478.856C2861.69,479.224 2862,479.528 2862.37,479.528C2862.73,479.528 2863.04,479.832 2863.04,480.2L2863.04,486.888C2863.04,487.256 2863.34,487.544 2863.71,487.544Z" style="fill:rgb(142,142,147);fill-opacity:0.4;fill-rule:nonzero;"/>
        </g>
        <g transform="matrix(1.09077,0,0,1.09077,-3024.3,-394.348)">
            <path d="M2870.59,487.528L2874.61,487.528C2874.97,487.528 2875.28,487.224 2875.28,486.856C2875.28,486.488 2875.58,486.184 2875.95,486.184C2876.32,486.184 2876.61,485.88 2876.61,485.512L2876.61,477.496C2876.61,477.128 2876.32,476.824 2875.95,476.824C2875.58,476.824 2875.28,476.52 2875.28,476.152C2875.28,475.784 2874.97,475.496 2874.61,475.496L2870.59,475.496C2870.22,475.496 2869.93,475.784 2869.93,476.152C2869.93,476.52 2869.63,476.824 2869.26,476.824C2868.89,476.824 2868.59,477.128 2868.59,477.496L2868.59,485.512C2868.59,485.88 2868.89,486.184 2869.26,486.184C2869.63,486.184 2869.93,486.488 2869.93,486.856C2869.93,487.224 2870.22,487.528 2870.59,487.528ZM2873.28,484.856L2871.93,484.856C2871.57,484.856 2871.26,484.552 2871.26,484.184L2871.26,478.824C2871.26,478.456 2871.57,478.168 2871.93,478.168L2873.28,478.168C2873.64,478.168 2873.93,478.456 2873.93,478.824L2873.93,484.184C2873.93,484.552 2873.64,484.856 2873.28,484.856Z" style="fill:rgb(142,142,147);fill-opacity:0.4;fill-rule:nonzero;"/>
        </g>
        <g transform="matrix(1.09077,0,0,1.09077,-3024.3,-394.348)">
            <path d="M2880.91,487.544L2882.24,487.544C2882.61,487.544 2882.91,487.256 2882.91,486.888L2882.91,476.184C2882.91,475.816 2882.61,475.512 2882.24,475.512L2880.91,475.512C2880.54,475.512 2880.24,475.816 2880.24,476.184C2880.24,476.552 2879.93,476.856 2879.57,476.856C2879.2,476.856 2878.89,477.16 2878.89,477.528L2878.89,478.856C2878.89,479.224 2879.2,479.528 2879.57,479.528C2879.93,479.528 2880.24,479.832 2880.24,480.2L2880.24,486.888C2880.24,487.256 2880.54,487.544 2880.91,487.544Z" style="fill:rgb(142,142,147);fill-opacity:0.4;fill-rule:nonzero;"/>
        </g>
        <g transform="matrix(1.09077,0,0,1.09077,-3024.3,-394.348)">
            <path d="M2887.82,487.544L2889.15,487.544C2889.52,487.544 2889.82,487.256 2889.82,486.888L2889.82,476.184C2889.82,475.816 2889.52,475.512 2889.15,475.512L2887.82,475.512C2887.45,475.512 2887.15,475.816 2887.15,476.184C2887.15,476.552 2886.85,476.856 2886.48,476.856C2886.11,476.856 2885.8,477.16 2885.8,477.528L2885.8,478.856C2885.8,479.224 2886.11,479.528 2886.48,479.528C2886.85,479.528 2887.15,479.832 2887.15,480.2L2887.15,486.888C2887.15,487.256 2887.45,487.544 2887.82,487.544Z" style="fill:rgb(142,142,147);fill-opacity:0.4;fill-rule:nonzero;"/>
        </g>
        <g transform="matrix(1.09077,0,0,1.09077,-3024.3,-394.348)">
            <path d="M2894.73,487.544L2896.06,487.544C2896.43,487.544 2896.73,487.256 2896.73,486.888L2896.73,476.184C2896.73,475.816 2896.43,475.512 2896.06,475.512L2894.73,475.512C2894.37,475.512 2894.06,475.816 2894.06,476.184C2894.06,476.552 2893.76,476.856 2893.39,476.856C2893.02,476.856 2892.72,477.16 2892.72,477.528L2892.72,478.856C2892.72,479.224 2893.02,479.528 2893.39,479.528C2893.76,479.528 2894.06,479.832 2894.06,480.2L2894.06,486.888C2894.06,487.256 2894.37,487.544 2894.73,487.544Z" style="fill:rgb(142,142,147);fill-opacity:0.4;fill-rule:nonzero;"/>
        </g>
        <g transform="matrix(1.09077,0,0,1.09077,-3024.3,-394.348)">
            <path d="M2901.64,487.544L2902.97,487.544C2903.34,487.544 2903.64,487.256 2903.64,486.888L2903.64,476.184C2903.64,475.816 2903.34,475.512 2902.97,475.512L2901.64,475.512C2901.28,475.512 2900.97,475.816 2900.97,476.184C2900.97,476.552 2900.67,476.856 2900.3,476.856C2899.93,476.856 2899.63,477.16 2899.63,477.528L2899.63,478.856C2899.63,479.224 2899.93,479.528 2900.3,479.528C2900.67,479.528 2900.97,479.832 2900.97,480.2L2900.97,486.888C2900.97,487.256 2901.28,487.544 2901.64,487.544Z" style="fill:rgb(142,142,147);fill-opacity:0.4;fill-rule:nonzero;"/>
        </g>
        <g transform="matrix(0.658424,0,0,1.41171,-14331.9,-6108.23)">
            <path d="M21989.6,4434.81C21989.6,4432.85 21986.2,4431.27 21982,4431.27L21934.9,4431.27C21930.7,4431.27 21927.3,4432.85 21927.3,4434.81C21927.3,4434.81 21927.3,4434.81 21927.3,4434.81C21927.3,4436.77 21930.7,4438.35 21934.9,4438.35L21982,4438.35C21986.2,4438.35 21989.6,4436.77 21989.6,4434.81C21989.6,4434.81 21989.6,4434.81 21989.6,4434.81Z" style="fill:rgb(253,180,190);"/>
        </g>
        <g transform="matrix(0.658424,0,0,1.41171,-14124.4,-6111.61)">
            <path d="M21989.6,4434.81C21989.6,4432.85 21986.2,4431.27 21982,4431.27L21934.9,4431.27C21930.7,4431.27 21927.3,4432.85 21927.3,4434.81L21927.3,4434.81C21927.3,4436.77 21930.7,4438.35 21934.9,4438.35L21982,4438.35C21986.2,4438.35 21989.6,4436.77 21989.6,4434.81C21989.6,4434.81 21989.6,4434.81 21989.6,4434.81Z" style="fill:rgb(253,180,190);"/>
        </g>
        <g transform="matrix(1.09523,0,0,1.41171,-23858.9,-6224.41)">
            <path d="M21989.6,4434.81C21989.6,4432.85 21987.5,4431.27 21985,4431.27L21931.9,4431.27C21929.3,4431.27 21927.3,4432.85 21927.3,4434.81L21927.3,4434.81C21927.3,4436.77 21929.3,4438.35 21931.9,4438.35L21985,4438.35C21987.5,4438.35 21989.6,4436.77 21989.6,4434.81L21989.6,4434.81Z" style="fill:rgb(206,241,167);"/>
        </g>
        <g transform="matrix(0.914067,0,0,1.41171,-19576.1,-6201.27)">
            <path d="M21989.6,4434.81C21989.6,4433.87 21989,4432.97 21988,4432.31C21986.9,4431.64 21985.5,4431.27 21984.1,4431.27C21972.3,4431.27 21944.6,4431.27 21932.8,4431.27C21931.3,4431.27 21929.9,4431.64 21928.9,4432.31C21927.9,4432.97 21927.3,4433.87 21927.3,4434.81C21927.3,4434.81 21927.3,4434.81 21927.3,4434.81C21927.3,4435.75 21927.9,4436.65 21928.9,4437.31C21929.9,4437.98 21931.3,4438.35 21932.8,4438.35C21944.6,4438.35 21972.3,4438.35 21984.1,4438.35C21985.5,4438.35 21986.9,4437.98 21988,4437.31C21989,4436.65 21989.6,4435.75 21989.6,4434.81C21989.6,4434.81 21989.6,4434.81 21989.6,4434.81Z" style="fill:rgb(206,241,167);"/>
        </g>
        <g transform="matrix(8.51059,0,0,8.51059,-23973.5,-4023.75)">
            <path d="M2845.16,487.544L2846.49,487.544C2846.86,487.544 2847.16,487.24 2847.16,486.872L2847.16,484.2C2847.16,483.832 2847.47,483.528 2847.84,483.528L2849.16,483.528C2849.53,483.528 2849.84,483.832 2849.84,484.2L2849.84,486.872C2849.84,487.24 2850.14,487.544 2850.51,487.544C2850.88,487.544 2851.18,487.24 2851.18,486.872C2851.18,486.504 2851.49,486.2 2851.85,486.2C2852.22,486.2 2852.51,485.912 2852.51,485.544L2852.51,482.856C2852.51,482.488 2852.22,482.2 2851.85,482.2C2851.49,482.2 2851.18,481.896 2851.18,481.528C2851.18,481.16 2851.49,480.856 2851.85,480.856C2852.22,480.856 2852.51,480.552 2852.51,480.184L2852.51,478.776C2852.51,478.408 2852.22,478.12 2851.85,478.12L2850.51,478.12C2850.14,478.12 2849.84,478.408 2849.84,478.776L2849.84,480.184C2849.84,480.552 2849.53,480.856 2849.16,480.856L2847.84,480.856C2847.47,480.856 2847.16,480.552 2847.16,480.184L2847.16,476.168C2847.16,475.8 2846.86,475.512 2846.49,475.512C2846.12,475.512 2845.82,475.8 2845.82,476.168C2845.82,476.536 2845.53,476.84 2845.16,476.84C2844.8,476.84 2844.49,477.144 2844.49,477.512L2844.49,486.872C2844.49,487.24 2844.8,487.544 2845.16,487.544Z" style="fill:rgb(253,163,174);fill-rule:nonzero;"/>
        </g>
        <g transform="matrix(8.51059,0,0,8.51059,-23895.3,-4034.85)">
            <path d="M2846.49,487.528L2850.51,487.528C2850.88,487.528 2851.18,487.224 2851.18,486.856C2851.18,486.488 2851.47,486.184 2851.84,486.184C2852.2,486.184 2852.51,485.896 2852.51,485.528L2852.51,480.168C2852.51,479.8 2852.22,479.48 2851.85,479.48C2851.49,479.48 2851.18,479.208 2851.18,478.84C2851.18,478.472 2850.88,478.168 2850.51,478.168L2846.49,478.168C2846.12,478.168 2845.82,478.472 2845.82,478.84C2845.82,479.208 2845.53,479.512 2845.16,479.512C2844.8,479.512 2844.49,479.8 2844.49,480.168C2844.49,480.536 2844.8,480.84 2845.16,480.84L2849.16,480.84C2849.53,480.84 2849.84,481.144 2849.84,481.512C2849.84,481.88 2849.53,482.184 2849.16,482.184L2845.16,482.184C2844.8,482.184 2844.49,482.472 2844.49,482.84L2844.49,485.528C2844.49,485.896 2844.8,486.184 2845.16,486.184C2845.53,486.184 2845.82,486.488 2845.82,486.856C2845.82,487.224 2846.12,487.528 2846.49,487.528ZM2849.16,484.856L2847.84,484.856C2847.47,484.856 2847.16,484.552 2847.16,484.184C2847.16,483.816 2847.47,483.512 2847.84,483.512L2849.16,483.512C2849.53,483.512 2849.84,483.816 2849.84,484.184C2849.84,484.552 2849.53,484.856 2849.16,484.856Z" style="fill:rgb(189,171,224);fill-rule:nonzero;"/>
        </g>
        <g transform="matrix(8.51059,0,0,8.51059,-23817.1,-3972.14)">
            <path d="M2846.51,487.512L2849.44,487.512C2849.8,487.512 2850.11,487.208 2850.11,486.84C2850.11,486.472 2850.4,486.184 2850.76,486.184C2851.13,486.184 2851.44,485.88 2851.44,485.512C2851.44,485.144 2851.13,484.84 2850.76,484.84L2847.84,484.84C2847.47,484.84 2847.18,484.536 2847.18,484.168L2847.18,476.152C2847.18,475.784 2846.88,475.48 2846.51,475.48C2846.14,475.48 2845.84,475.784 2845.84,476.152C2845.84,476.52 2845.53,476.824 2845.16,476.824C2844.8,476.824 2844.49,477.112 2844.49,477.48L2844.49,485.512C2844.49,485.88 2844.8,486.184 2845.16,486.184C2845.53,486.184 2845.84,486.472 2845.84,486.84C2845.84,487.208 2846.14,487.512 2846.51,487.512Z" style="fill:rgb(255,90,95);fill-rule:nonzero;"/>
        </g>
        <g transform="matrix(8.51059,0,0,8.51059,-23774,-4023.48)">
            <path d="M2845.15,487.528L2846.49,487.528C2846.86,487.528 2847.15,487.224 2847.15,486.856L2847.15,478.824C2847.15,478.456 2846.86,478.168 2846.49,478.168L2845.15,478.168C2844.78,478.168 2844.48,478.456 2844.48,478.824L2844.48,486.856C2844.48,487.224 2844.78,487.528 2845.15,487.528Z" style="fill:rgb(248,197,28);fill-rule:nonzero;"/>
        </g>
        <g transform="matrix(8.51059,0,0,8.51059,-23741.1,-3960.97)">
            <path d="M2845.13,487.528L2846.48,487.528C2846.83,487.528 2847.13,487.224 2847.13,486.856L2847.13,481.512C2847.13,481.144 2847.44,480.84 2847.8,480.84L2850.48,480.84C2850.85,480.84 2851.15,480.536 2851.15,480.168L2851.15,478.84C2851.15,478.472 2850.85,478.168 2850.48,478.168L2847.8,478.168C2847.44,478.168 2847.13,477.864 2847.13,477.496C2847.13,477.128 2847.44,476.824 2847.8,476.824L2849.15,476.824C2849.52,476.824 2849.8,476.536 2849.8,476.168L2849.8,474.824C2849.8,474.456 2849.52,474.152 2849.15,474.152L2846.48,474.152C2846.11,474.152 2845.8,474.456 2845.8,474.824C2845.8,475.192 2845.5,475.496 2845.13,475.496C2844.76,475.496 2844.46,475.8 2844.46,476.168L2844.46,486.856C2844.46,487.224 2844.76,487.528 2845.13,487.528Z" style="fill:rgb(126,211,33);fill-rule:nonzero;"/>
        </g>
        <g transform="matrix(-8.51059,0,0,8.51059,24810.2,-4035.05)">
            <path d="M2846.48,487.544L2850.49,487.544C2850.86,487.544 2851.15,487.24 2851.15,486.872C2851.15,486.504 2851.45,486.2 2851.82,486.2C2852.19,486.2 2852.49,485.896 2852.49,485.528C2852.49,485.16 2852.19,484.856 2851.82,484.856L2847.8,484.856C2847.45,484.856 2847.15,484.568 2847.15,484.2C2847.15,483.832 2847.45,483.528 2847.8,483.528L2851.82,483.528C2852.19,483.528 2852.49,483.224 2852.49,482.856L2852.49,480.184C2852.49,479.816 2852.19,479.512 2851.82,479.512C2851.45,479.512 2851.15,479.208 2851.15,478.84C2851.15,478.472 2850.86,478.168 2850.49,478.168L2846.48,478.168C2846.11,478.168 2845.8,478.472 2845.8,478.84C2845.8,479.208 2845.5,479.512 2845.13,479.512C2844.76,479.512 2844.48,479.816 2844.48,480.184L2844.48,485.528C2844.48,485.896 2844.76,486.2 2845.13,486.2C2845.5,486.2 2845.8,486.504 2845.8,486.872C2845.8,487.24 2846.11,487.544 2846.48,487.544ZM2849.15,482.184L2847.85,482.184C2847.5,482.184 2847.21,481.88 2847.21,481.512C2847.21,481.144 2847.5,480.856 2847.85,480.856L2849.15,480.856C2849.52,480.856 2849.82,481.144 2849.82,481.512C2849.82,481.88 2849.52,482.184 2849.15,482.184Z" style="fill:rgb(74,183,226);fill-rule:nonzero;"/>
        </g>
    </g>
</svg>
